<?xml version="1.0" ?><svg id="Layer_1" style="enable-background:new 0 0 512 512;" version="1.1" viewBox="0 0 512 512" xml:space="preserve" xmlns="http://www.w3.org/2000/svg" xmlns:xlink="http://www.w3.org/1999/xlink"><g id="XMLID_1008_"><g id="XMLID_1003_"><g id="XMLID_1009_"><g id="XMLID_1019_"><g id="XMLID_1022_"><polygon id="XMLID_1023_" points="419.3,112.9 319.7,112.9 319.7,13.3 334.2,13.3 334.2,98.4 419.3,98.4      "/></g><g id="XMLID_1020_"><polygon id="XMLID_1021_" points="426.6,506 37.9,506 37.9,6 334,6 426.6,102.7 426.6,256 412.1,256 412.1,108.6 327.8,20.5        52.4,20.5 52.4,491.5 412.1,491.5 412.1,457.1 426.6,457.1      "/></g></g><g id="XMLID_1010_"><g id="XMLID_1017_"><rect height="14.5" id="XMLID_1018_" width="197.1" x="98.7" y="111.4"/></g><g id="XMLID_1015_"><rect height="14.5" id="XMLID_1016_" width="129.9" x="98.7" y="154.2"/></g><g id="XMLID_1013_"><rect height="14.5" id="XMLID_1014_" width="267" x="98.7" y="197.1"/></g><g id="XMLID_1011_"><rect height="14.5" id="XMLID_1012_" width="267" x="98.7" y="239.9"/></g></g></g><g id="XMLID_1004_"><path d="M419.3,475L341,361.7h33.5v-113h89.8v113h33.5L419.3,475z M368.7,376.2l50.7,73.3l50.7-73.3h-20.3v-113     H389v113H368.7z" id="XMLID_1005_"/></g></g><g id="XMLID_2276_"><path d="M282,328.3H14.3v115H282l-56.9-57.5L282,328.3z M105.4,395.5c0,4.7-1.4,8.4-4.3,11.1    c-2.8,2.8-6.5,4.1-11,4.1c-4.8,0-8.6-1.2-11.4-3.7c-2.8-2.4-4.2-6-4-10.7l0.1-0.2h7.8c0,2.8,0.7,4.8,2,6.1c1.3,1.3,3.2,2,5.5,2    c2.1,0,3.8-0.8,5.2-2.4c1.3-1.6,2-3.7,2-6.4v-34h8.1V395.5z M148.8,387.5c-3,2.7-7.2,4.1-12.6,4.1h-10.5v18.4h-8.1v-48.6h18.6    c5.4,0,9.6,1.4,12.6,4.2c3,2.8,4.6,6.4,4.6,10.9C153.4,381.1,151.8,384.8,148.8,387.5z M199.2,403.5c-1.3,1.9-3.5,3.6-6.4,5.1    c-2.9,1.5-6.7,2.2-11.3,2.2c-5.7,0-10.5-1.9-14.2-5.6s-5.6-8.5-5.6-14.4v-10.1c0-5.9,1.8-10.7,5.4-14.4c3.6-3.7,8.2-5.6,13.8-5.6    c5.7,0,10.1,1.4,13.2,4.3c3.2,2.8,4.7,6.6,4.6,11.1l-0.1,0.2h-7.7c0-2.7-0.9-4.9-2.6-6.6c-1.7-1.7-4.1-2.5-7.3-2.5    c-3.4,0-6.1,1.3-8.1,3.8c-2.1,2.5-3.1,5.7-3.1,9.6v10.2c0,3.9,1.1,7.1,3.2,9.7c2.1,2.5,4.9,3.8,8.4,3.8c2.6,0,4.7-0.3,6.2-0.9    c1.5-0.6,2.7-1.3,3.4-2.2v-10h-10.2v-6.1h18.3V403.5z" id="XMLID_2286_"/><path d="M136.2,368h-10.5v17.2h10.5c3,0,5.3-0.8,6.8-2.4c1.5-1.6,2.3-3.6,2.3-6.1c0-2.5-0.8-4.5-2.3-6.2    C141.5,368.8,139.2,368,136.2,368z" id="XMLID_2569_"/></g></g></svg>