<?xml version="1.0" ?><svg id="Layer_1" style="enable-background:new 0 0 512 512;" version="1.1" viewBox="0 0 512 512" xml:space="preserve" xmlns="http://www.w3.org/2000/svg" xmlns:xlink="http://www.w3.org/1999/xlink"><g id="XMLID_3077_"><g id="XMLID_7_"><g id="XMLID_9_"><g id="XMLID_31_"><g id="XMLID_34_"><polygon id="XMLID_726_" points="419.3,112.9 319.7,112.9 319.7,13.3 334.2,13.3 334.2,98.4 419.3,98.4      "/></g><g id="XMLID_33_"><polygon id="XMLID_650_" points="426.6,506 37.9,506 37.9,6 334,6 426.6,102.7 426.6,256 412.1,256 412.1,108.6 327.8,20.5        52.4,20.5 52.4,491.5 412.1,491.5 412.1,457.1 426.6,457.1      "/></g></g><g id="XMLID_10_"><g id="XMLID_14_"><rect height="14.5" id="XMLID_574_" width="197.1" x="98.7" y="111.4"/></g><g id="XMLID_13_"><rect height="14.5" id="XMLID_498_" width="129.9" x="98.7" y="154.2"/></g><g id="XMLID_12_"><rect height="14.5" id="XMLID_422_" width="267" x="98.7" y="197.1"/></g><g id="XMLID_11_"><rect height="14.5" id="XMLID_346_" width="267" x="98.7" y="239.9"/></g></g></g><g id="XMLID_8_"><path d="M419.3,475L341,361.7h33.5v-113h89.8v113h33.5L419.3,475z M368.7,376.2l50.7,73.3l50.7-73.3h-20.3v-113     H389v113H368.7z" id="XMLID_193_"/></g></g><g id="XMLID_3128_"><path d="M80.5,368H70v17.2h10.5c3,0,5.3-0.8,6.8-2.4c1.5-1.6,2.3-3.6,2.3-6.1c0-2.5-0.8-4.5-2.3-6.2    C85.8,368.8,83.5,368,80.5,368z" id="XMLID_3129_"/><path d="M282,328.3H14.3v115H282l-56.9-57.5L282,328.3z M93.1,387.5c-3,2.7-7.2,4.1-12.6,4.1H70v18.4h-8.1v-48.6    h18.6c5.4,0,9.6,1.4,12.6,4.2c3,2.8,4.6,6.4,4.6,10.9C97.7,381.1,96.2,384.8,93.1,387.5z M145.4,410.1h-8.1l-21.5-35l-0.2,0.1    v34.9h-8.1v-48.6h8.1l21.5,35l0.2-0.1v-34.9h8.1V410.1z M193.7,403.5c-1.3,1.9-3.5,3.6-6.4,5.1c-2.9,1.5-6.7,2.2-11.3,2.2    c-5.7,0-10.5-1.9-14.2-5.6c-3.7-3.7-5.6-8.5-5.6-14.4v-10.1c0-5.9,1.8-10.7,5.4-14.4c3.6-3.7,8.2-5.6,13.8-5.6    c5.7,0,10.1,1.4,13.2,4.3c3.2,2.8,4.7,6.6,4.6,11.1l-0.1,0.2h-7.7c0-2.7-0.9-4.9-2.6-6.6s-4.1-2.5-7.3-2.5c-3.4,0-6.1,1.3-8.1,3.8    c-2.1,2.5-3.1,5.7-3.1,9.6v10.2c0,3.9,1.1,7.1,3.2,9.7c2.1,2.5,4.9,3.8,8.4,3.8c2.6,0,4.7-0.3,6.2-0.9c1.5-0.6,2.7-1.3,3.4-2.2    v-10h-10.2v-6.1h18.3V403.5z" id="XMLID_3132_"/></g></g></svg>