<?xml version="1.0" ?>
<svg
  width="24px"
  height="32px"
  version="1.1"
  viewBox="0 0 512 512"
  xml:space="preserve"
  xmlns="http://www.w3.org/2000/svg"
  xmlns:xlink="http://www.w3.org/1999/xlink"
>
  <g fill="#ffffff"><g id="XMLID_961_"><g id="XMLID_967_"><g id="XMLID_977_"><g id="XMLID_980_"><polygon id="XMLID_981_" points="419.3,112.9 319.7,112.9 319.7,13.3 334.2,13.3 334.2,98.4 419.3,98.4      "/></g><g id="XMLID_978_"><polygon id="XMLID_979_" points="426.6,506 37.9,506 37.9,6 334,6 426.6,102.7 426.6,256 412.1,256 412.1,108.6 327.8,20.5        52.4,20.5 52.4,491.5 412.1,491.5 412.1,457.1 426.6,457.1      "/></g></g><g id="XMLID_968_"><g id="XMLID_975_"><rect height="14.5" id="XMLID_976_" width="197.1" x="98.7" y="111.4"/></g><g id="XMLID_973_"><rect height="14.5" id="XMLID_974_" width="129.9" x="98.7" y="154.2"/></g><g id="XMLID_971_"><rect height="14.5" id="XMLID_972_" width="267" x="98.7" y="197.1"/></g><g id="XMLID_969_"><rect height="14.5" id="XMLID_970_" width="267" x="98.7" y="239.9"/></g></g></g><g id="XMLID_962_"><path d="M419.3,475L341,361.7h33.5v-113h89.8v113h33.5L419.3,475z M368.7,376.2l50.7,73.3l50.7-73.3h-20.3v-113     H389v113H368.7z" id="XMLID_963_"/></g></g><path d="M282,328.3H14.3v115H282l-56.9-57.5L282,328.3z M104.9,407.2c-3.2,2.4-7.3,3.6-12.4,3.6   c-4.9,0-9.2-1.3-12.9-3.9c-3.7-2.6-5.5-6.3-5.3-11.1l0.1-0.2h7.8c0,2.9,1,5.1,3,6.6c2,1.5,4.5,2.2,7.4,2.2c2.9,0,5.1-0.6,6.7-1.8   c1.6-1.2,2.4-2.9,2.4-4.9c0-2-0.7-3.7-2.2-5c-1.4-1.3-4-2.4-7.6-3.5c-5.2-1.4-9.3-3.3-12.1-5.7c-2.8-2.3-4.3-5.4-4.3-9.2   c0-3.9,1.6-7.1,4.7-9.7c3.1-2.5,7.1-3.8,12-3.8c5.3,0,9.5,1.4,12.6,4.2c3.1,2.8,4.7,6.3,4.6,10.4l-0.1,0.2h-7.8   c0-2.6-0.9-4.6-2.6-6.1c-1.7-1.5-4-2.3-6.8-2.3c-2.7,0-4.8,0.6-6.3,1.9c-1.5,1.3-2.2,3-2.2,5c0,1.9,0.8,3.4,2.4,4.6   c1.6,1.2,4.3,2.4,8.1,3.5c5.1,1.4,9,3.4,11.6,5.8c2.7,2.5,4,5.6,4,9.4C109.7,401.5,108.1,404.8,104.9,407.2z M140.5,410.1h-7.7   l-17.3-48.6h8.6l11.6,35.4l0.9,3.5h0.2l0.8-3.5l11.6-35.5h8.6L140.5,410.1z M201.1,403.5c-1.3,1.9-3.5,3.6-6.4,5.1   c-2.9,1.5-6.7,2.2-11.3,2.2c-5.7,0-10.5-1.9-14.2-5.6c-3.7-3.7-5.6-8.5-5.6-14.4v-10.1c0-5.9,1.8-10.7,5.4-14.4   c3.6-3.7,8.2-5.6,13.8-5.6c5.7,0,10.1,1.4,13.2,4.3c3.2,2.8,4.7,6.6,4.6,11.1l-0.1,0.2h-7.7c0-2.7-0.9-4.9-2.6-6.6   s-4.1-2.5-7.3-2.5c-3.4,0-6.1,1.3-8.1,3.8c-2.1,2.5-3.1,5.7-3.1,9.6v10.2c0,3.9,1.1,7.1,3.2,9.7c2.1,2.5,4.9,3.8,8.4,3.8   c2.6,0,4.7-0.3,6.2-0.9c1.5-0.6,2.7-1.3,3.4-2.2v-10h-10.2v-6.1h18.3V403.5z" id="XMLID_2639_"/></g>
</svg>
