<?xml version="1.0" encoding="utf-8"?>
<!-- Generator: Adobe Illustrator 22.0.0, SVG Export Plug-In . SVG Version: 6.00 Build 0)  -->
<svg version="1.1" id="Layer_1" xmlns="http://www.w3.org/2000/svg" xmlns:xlink="http://www.w3.org/1999/xlink" x="0px" y="0px"
	 viewBox="0 0 27 22" style="enable-background:new 0 0 27 22;" xml:space="preserve">
<style type="text/css">
	.st0{fill:#A48B52;}
	.st1{fill:#589E48;}
	.st2{fill:#71B966;}
</style>
<g>
	<g>
		<g>
			<path class="st0" d="M8.2,14.5c-0.2,0.2-0.4,0.2-0.6,0c-1.7-1.9-1.8-3.1-1.8-5.7v-2l0.6-0.1v1.9c0,2.4,0.2,3.5,1.8,5.3
				C8.4,14.1,8.4,14.3,8.2,14.5z"/>
		</g>
	</g>
	<g>
		<g>
			<path class="st0" d="M17.3,19.4v-0.6c1.4,0,2.5-1.1,2.5-2.5v-1.9h0.6v1.9C20.5,18,19.1,19.4,17.3,19.4z"/>
		</g>
		<g>
			<path class="st0" d="M17,21.5c0,0-0.1,0.5-0.7,0.5c-0.4,0-0.4-0.5-0.4-0.5c-0.1-2.5,1.5-3,1.5-4.4l0-1.2h0.6L18,17.1
				C18,18.8,16.9,19.4,17,21.5z"/>
		</g>
		<g>
			<path class="st0" d="M17.8,18.1v-0.5c-1.1,0-1.9-0.9-1.9-1.9v-1.5h-0.5v1.5C15.4,17,16.5,18.1,17.8,18.1z"/>
		</g>
	</g>
	<g>
		<path class="st0" d="M6.6,11.3v-0.6c-1.4,0-2.5-1.1-2.5-2.5V6.2L3.8,6.1v1.9C3.8,9.8,4.9,11.3,6.6,11.3z"/>
	</g>
	<path class="st1" d="M24.9,7.4C25,7.1,25,6.8,25,6.5c0-1.5-1.2-2.8-2.7-2.8c-0.5,0-1,0.1-1.4,0.4c-0.8-1-2.1-1.9-4-1.8
		c-4.5,0.3-5,3.3-5,3.3c0-1.4-1-2.5-2.4-2.7C9.1,1.8,8,1,6.8,1C5.4,1,4.2,2,4,3.3C3.6,3.1,3.2,3,2.8,3C1.4,3,0.2,4.2,0.2,5.6
		c0,0.2,0,0.3,0,0.5C0.5,7.8,2,9.3,4.7,9.3c0.3,0,0.6,0,0.9-0.1c0.4,0.7,1.2,1.2,2,1.2c0.3,0,0.6,0,0.8-0.1v2.2
		c0,1.9,1.5,3.5,3.5,3.5c0.1,0,0.2,0,0.3,0c0.7,1.4,2.1,2.3,3.7,2.3c1.4,0,2.6-0.7,3.4-1.7c0.4,0.1,0.9,0.1,1.3,0.1
		c1,0,2-0.2,2.8-0.6c0,0,2.9-0.8,3.2-4.5C26.9,9.6,26,8.3,24.9,7.4z"/>
	<path class="st2" d="M20.6,7.2c0.1-0.2,0.1-0.3,0.1-0.5c0-0.9-0.7-1.6-1.6-1.6c-0.3,0-0.6,0.1-0.8,0.2c-0.5-0.6-1.2-1.1-2.4-1.1
		c-2.6,0.2-2.9,2-2.9,1.9c0-0.1-1.3-0.7-2.1,0.8c-0.1,0.2-0.4,0.8,0.4,2c0,0-0.3,0.4-0.3,1.2c0.1,1.1,0.9,2,2,2c0.1,0,0.1,0,0.2,0
		c0.4,0.8,1.2,1.4,2.2,1.4c0.8,0,1.5-0.4,2-1c0.3,0,0.5,0.1,0.8,0.1c1.4,0.1,3.6-0.7,3.8-2.8C22,8.7,21.3,7.7,20.6,7.2z"/>
	<path class="st2" d="M7.4,7.2c2.2-0.6,2.1-2.9,1.2-3.7C8.4,3.3,8.1,3.2,7.8,3.2C7.5,2.5,6.9,2,6.2,2C5.4,2,4.7,2.6,4.5,3.4
		C4.3,3.3,4.1,3.2,3.9,3.2C3,3.2,2.3,3.9,2.3,4.7c0,0.1,0,0.2,0,0.3c0.1,1,1,1.9,2.6,1.9c0.2,0,0.4,0,0.5-0.1C5.6,7,6.5,7.5,7.4,7.2
		z"/>
</g>
</svg>
