<svg xmlns="http://www.w3.org/2000/svg" width="692" height="650" viewBox="0 0 692 650">
    <g fill="none" fill-rule="evenodd">
        <path fill="#4CD5E7" d="M396.06 53.191a.598.598 0 1 1 0-1.196.598.598 0 0 1 0 1.196M410.35 57.312a.744.744 0 1 1-.001-1.487.744.744 0 0 1 0 1.487M424.474 61.985a.89.89 0 1 1 0-1.78.89.89 0 0 1 0 1.78M438.417 67.19a1.035 1.035 0 1 1 0-2.07 1.035 1.035 0 0 1 0 2.07M452.16 72.92a1.181 1.181 0 1 1 0-2.363 1.181 1.181 0 0 1 0 2.362M465.68 79.167a1.327 1.327 0 1 1 0-2.655 1.327 1.327 0 0 1 0 2.655M478.952 85.934a1.473 1.473 0 1 1 0-2.945 1.473 1.473 0 0 1 0 2.945M491.95 93.226a1.618 1.618 0 1 1 0-3.236 1.618 1.618 0 0 1 0 3.236M504.642 101.049a1.764 1.764 0 1 1 0-3.528 1.764 1.764 0 0 1 0 3.528M516.991 109.413a1.91 1.91 0 1 1 0-3.82 1.91 1.91 0 0 1 0 3.82M528.956 118.327a2.056 2.056 0 1 1 .001-4.112 2.056 2.056 0 0 1 0 4.112M540.492 127.799a2.202 2.202 0 1 1 0-4.403 2.202 2.202 0 0 1 0 4.403M551.546 137.836a2.347 2.347 0 1 1 .002-4.695 2.347 2.347 0 0 1-.002 4.695M562.064 148.442a2.493 2.493 0 1 1 0-4.985 2.493 2.493 0 0 1 0 4.985M571.986 159.616a2.638 2.638 0 1 1 0-5.276 2.638 2.638 0 0 1 0 5.276M581.249 171.349a2.784 2.784 0 1 1 0-5.568 2.784 2.784 0 0 1 0 5.568M589.79 183.624a2.93 2.93 0 1 1 0-5.86 2.93 2.93 0 0 1 0 5.86M597.546 196.415a3.076 3.076 0 1 1 .001-6.152 3.076 3.076 0 0 1 0 6.152M604.461 209.685a3.222 3.222 0 1 1 .002-6.444 3.222 3.222 0 0 1-.002 6.444M610.56 223.357a3.369 3.369 0 1 1 .002-6.737 3.369 3.369 0 0 1-.002 6.737M616.104 237.268a3.517 3.517 0 1 1 .001-7.035 3.517 3.517 0 0 1 0 7.035M621.108 251.386a3.665 3.665 0 0 1-3.665-3.667 3.666 3.666 0 1 1 3.665 3.667M201.941 622.885a.598.598 0 1 1 0-1.196.598.598 0 0 1 0 1.196M215.895 628.06a.744.744 0 1 1 0-1.487.744.744 0 0 1 0 1.487M230.034 632.689a.89.89 0 1 1 0-1.779.89.89 0 0 1 0 1.779M244.332 636.778a1.035 1.035 0 1 1 0-2.07 1.035 1.035 0 0 1 0 2.07M258.77 640.324a1.181 1.181 0 1 1 0-2.362 1.181 1.181 0 0 1 0 2.362M273.326 643.319a1.327 1.327 0 1 1 0-2.654 1.327 1.327 0 0 1 0 2.654M287.981 645.747a1.472 1.472 0 1 1 0-2.944 1.472 1.472 0 0 1 0 2.944M302.716 647.588a1.618 1.618 0 1 1 0-3.237 1.618 1.618 0 0 1 0 3.237M317.508 648.818a1.764 1.764 0 1 1 0-3.528 1.764 1.764 0 0 1 0 3.528M332.334 649.409a1.91 1.91 0 1 1 0-3.82 1.91 1.91 0 0 1 0 3.82M347.164 649.329a2.056 2.056 0 1 1 0-4.111 2.056 2.056 0 0 1 0 4.11M361.966 648.545a2.202 2.202 0 1 1 .001-4.403 2.202 2.202 0 0 1 0 4.403M376.704 647.021a2.347 2.347 0 1 1 0-4.694 2.347 2.347 0 0 1 0 4.694M391.333 644.723a2.493 2.493 0 1 1 0-4.986 2.493 2.493 0 0 1 0 4.986M405.804 641.617a2.638 2.638 0 1 1 0-5.276 2.638 2.638 0 0 1 0 5.276M420.06 637.674a2.784 2.784 0 1 1 .001-5.568 2.784 2.784 0 0 1 0 5.568M434.042 632.87a2.93 2.93 0 1 1 0-5.86 2.93 2.93 0 0 1 0 5.86M447.683 627.192a3.076 3.076 0 1 1 0-6.152 3.076 3.076 0 0 1 0 6.152M460.914 620.637a3.222 3.222 0 1 1 .001-6.444 3.222 3.222 0 0 1-.001 6.444M473.711 613.284a3.37 3.37 0 1 1 .002-6.739 3.37 3.37 0 0 1-.002 6.739M486.194 605.417a3.517 3.517 0 1 1 0-7.035 3.517 3.517 0 0 1 0 7.035M498.354 597.068a3.666 3.666 0 1 1 .002-7.335 3.666 3.666 0 0 1-.002 7.335M2.26 417.354a1.955 1.955 0 1 1 .001-3.91 1.955 1.955 0 0 1 0 3.91M4.886 428.813a1.815 1.815 0 1 1 0-3.63 1.815 1.815 0 0 1 0 3.63M7.912 440.174a1.676 1.676 0 1 1 .001-3.353 1.676 1.676 0 0 1 0 3.353M11.337 451.422a1.536 1.536 0 1 1 0-3.073 1.536 1.536 0 0 1 0 3.073M15.155 462.544a1.396 1.396 0 1 1 0-2.793 1.396 1.396 0 0 1 0 2.793M19.363 473.527a1.257 1.257 0 1 1 0-2.514 1.257 1.257 0 0 1 0 2.514M23.954 484.356a1.117 1.117 0 1 1 0-2.235 1.117 1.117 0 0 1 0 2.235M28.923 495.02a.977.977 0 1 1 0-1.955.977.977 0 0 1 0 1.955M34.263 505.505a.838.838 0 1 1 0-1.675.838.838 0 0 1 0 1.675M39.968 515.798a.698.698 0 1 1 0-1.396.698.698 0 0 1 0 1.396M46.03 525.888a.558.558 0 1 1 0-1.116.558.558 0 0 1 0 1.116M52.44 535.763a.42.42 0 1 1 0-.839.42.42 0 0 1 0 .84M59.191 545.411a.28.28 0 1 1 0-.559.28.28 0 0 1 0 .56M66.276 554.821a.14.14 0 1 1 0-.28.14.14 0 1 1 0 .28M327.04 4.18a1.752 1.752 0 1 1 .001-3.504 1.752 1.752 0 0 1 0 3.504M309.78 4.744a1.89 1.89 0 1 1 .001-3.78 1.89 1.89 0 0 1 0 3.78M292.564 6.163a2.03 2.03 0 1 1 .001-4.06 2.03 2.03 0 0 1-.001 4.06M275.434 8.44a2.169 2.169 0 1 1 0-4.339 2.169 2.169 0 0 1 0 4.338M258.433 11.572a2.309 2.309 0 1 1 .001-4.618 2.309 2.309 0 0 1 0 4.618M241.605 15.558a2.448 2.448 0 1 1 .002-4.896 2.448 2.448 0 0 1-.002 4.896M224.993 20.388a2.588 2.588 0 1 1 .001-5.176 2.588 2.588 0 0 1 0 5.176M208.64 26.05a2.727 2.727 0 1 1 .001-5.453 2.727 2.727 0 0 1-.001 5.454M192.586 32.532a2.866 2.866 0 1 1 0-5.733 2.866 2.866 0 0 1 0 5.733M176.87 39.815a3.005 3.005 0 1 1 .002-6.01 3.005 3.005 0 0 1-.002 6.01M161.534 47.88a3.145 3.145 0 1 1 .001-6.29 3.145 3.145 0 0 1 0 6.29M146.616 56.705a3.284 3.284 0 1 1 .002-6.571 3.284 3.284 0 0 1-.002 6.57M132.15 66.266a3.424 3.424 0 1 1 .001-6.847 3.424 3.424 0 0 1 0 6.847M118.174 76.54a3.563 3.563 0 1 1 .001-7.126 3.563 3.563 0 0 1 0 7.125M104.72 87.497a3.703 3.703 0 1 1 .002-7.405 3.703 3.703 0 0 1-.001 7.405M91.823 99.112a3.841 3.841 0 0 1-3.84-3.842 3.841 3.841 0 1 1 3.84 3.842M79.512 111.355a3.981 3.981 0 1 1 .002-7.962 3.981 3.981 0 0 1-.002 7.962M67.82 124.197a4.12 4.12 0 0 1-4.12-4.121 4.12 4.12 0 1 1 8.239 0 4.12 4.12 0 0 1-4.12 4.12M56.773 137.605a4.26 4.26 0 1 1 .002-8.52 4.26 4.26 0 0 1-.002 8.52M46.42 151.523a4.399 4.399 0 0 1-4.398-4.4 4.399 4.399 0 1 1 8.796 0c0 2.43-1.969 4.4-4.398 4.4"/>
        <path stroke="#4CD5E7" stroke-dasharray="0,16.264" stroke-linecap="round" stroke-linejoin="round" stroke-width="5.205" d="M466.752 11.13a363.92 363.92 0 0 1 7.732 3.351C600.598 70.92 688.47 197.534 688.47 344.681M537.871 347.014c0 116.478-94.392 210.902-210.83 210.902"/>
    </g>
</svg>
