<svg xmlns="http://www.w3.org/2000/svg" width="45" height="58" viewBox="0 0 45 58">
    <path fill="#FFF" fill-rule="nonzero" stroke="#FFF" stroke-width=".5" d="M39.174 40.946l-8.842-4.426a2.438 2.438 0 0 1-1.353-2.192v-3.134c.212-.26.435-.555.666-.882a21.223 21.223 0 0 0 2.734-5.374 3.678 3.678 0 0 0 2.154-3.353v-3.707a3.7 3.7 0 0 0-.926-2.433v-4.93c.052-.51.256-3.545-1.936-6.048-1.901-2.172-4.986-3.273-9.171-3.273s-7.27 1.101-9.171 3.272c-2.192 2.503-1.988 5.539-1.936 6.048v4.93a3.7 3.7 0 0 0-.926 2.434v3.707c0 1.128.512 2.18 1.386 2.882.848 3.361 2.622 5.895 3.242 6.707v3.067a2.45 2.45 0 0 1-1.274 2.15l-8.258 4.51a8.36 8.36 0 0 0-4.352 7.343v3c0 4.4 13.926 5.562 21.289 5.562 7.363 0 21.29-1.162 21.29-5.561v-2.82a8.318 8.318 0 0 0-4.616-7.479zm2.764 10.299c0 1.258-6.86 3.707-19.438 3.707-12.577 0-19.438-2.45-19.438-3.707v-3.001A6.505 6.505 0 0 1 6.45 42.53l8.257-4.51a4.305 4.305 0 0 0 2.24-3.779v-3.725l-.215-.257c-.023-.027-2.291-2.775-3.157-6.549l-.084-.367-.316-.204a1.85 1.85 0 0 1-.856-1.554v-3.707c0-.52.22-1.005.62-1.368l.306-.275v-5.772l-.008-.122c-.003-.025-.318-2.594 1.485-4.654 1.534-1.751 4.152-2.64 7.779-2.64 3.615 0 6.227.882 7.762 2.622 1.802 2.04 1.504 4.65 1.502 4.672l-.008 5.894.306.276c.4.362.62.847.62 1.367v3.707c0 .81-.53 1.517-1.316 1.76l-.461.142-.149.459a19.414 19.414 0 0 1-2.623 5.295c-.275.39-.542.736-.774 1l-.23.263v3.824c0 1.64.909 3.115 2.374 3.849l8.843 4.427a6.473 6.473 0 0 1 3.592 5.82v2.82z"/>
</svg>
