<svg xmlns="http://www.w3.org/2000/svg" width="49" height="62" viewBox="0 0 49 62">
    <g fill="#FFF" fill-rule="nonzero">
        <path d="M34.931 15.829c-2.98-2.872-6.895-4.353-11.037-4.2-7.944.315-14.422 7.047-14.448 15.018a15.048 15.048 0 0 0 3.486 9.68 21.864 21.864 0 0 1 5.052 13.944s-.341 2.328 1.313 2.328h10.406c1.692 0 1.313-2.328 1.313-2.328 0-4.96 1.82-9.87 5.267-14.197a14.96 14.96 0 0 0 3.27-9.376c0-4.138-1.641-8.01-4.622-10.869zm-.707 18.6c-3.75 4.707-5.759 10.072-5.834 15.538h-7.78a24.531 24.531 0 0 0-5.657-15.323 12.452 12.452 0 0 1-2.867-7.984c.025-6.58 5.367-12.134 11.921-12.4 3.423-.127 6.656 1.1 9.106 3.467a12.333 12.333 0 0 1 3.814 8.971c-.013 2.847-.935 5.517-2.703 7.731zM41.827 7.187a1.302 1.302 0 0 0-1.857 0L36.763 10.4a1.308 1.308 0 0 0 0 1.86c.517.506 1.35.519 1.856 0l3.208-3.214a1.308 1.308 0 0 0 0-1.86zM29.754 54.396H19.246c-.732 0-1.313.594-1.313 1.315 0 .734.594 1.316 1.313 1.316h10.508c.732 0 1.313-.594 1.313-1.316 0-.72-.594-1.315-1.313-1.315zM27.77 59.356h-6.528c-.733 0-1.314.594-1.314 1.315 0 .734.594 1.316 1.314 1.316h6.529c.732 0 1.313-.594 1.313-1.316 0-.72-.593-1.315-1.313-1.315zM24.5 7.174c.732 0 1.313-.594 1.313-1.316V1.316C25.813.582 25.22 0 24.5 0s-1.313.595-1.313 1.316v4.542c0 .734.58 1.316 1.313 1.316zM12.237 12.273a1.308 1.308 0 0 0 0-1.86L9.03 7.2a1.302 1.302 0 0 0-1.857 0c-.505.518-.518 1.353 0 1.86l3.208 3.213a1.325 1.325 0 0 0 1.856 0zM47.687 23.231h-4.534c-.733 0-1.314.595-1.314 1.316 0 .721.594 1.316 1.314 1.316h4.534c.732 0 1.313-.595 1.313-1.316 0-.721-.594-1.316-1.313-1.316zM5.847 23.231H1.313c-.732 0-1.313.595-1.313 1.316 0 .721.594 1.316 1.313 1.316h4.534c.733 0 1.314-.595 1.314-1.316 0-.721-.581-1.316-1.314-1.316z"/>
    </g>
</svg>
