<?xml version="1.0" encoding="UTF-8" standalone="no"?>
<svg
   xmlns:dc="http://purl.org/dc/elements/1.1/"
   xmlns:cc="http://creativecommons.org/ns#"
   xmlns:rdf="http://www.w3.org/1999/02/22-rdf-syntax-ns#"
   xmlns:svg="http://www.w3.org/2000/svg"
   xmlns="http://www.w3.org/2000/svg"
   xmlns:sodipodi="http://sodipodi.sourceforge.net/DTD/sodipodi-0.dtd"
   xmlns:inkscape="http://www.inkscape.org/namespaces/inkscape"
   viewBox="0 0 711.4267 208.728"
   height="208.728"
   width="711.4267"
   xml:space="preserve"
   id="svg2"
   version="1.1"
   style="zoom: 1;"
   sodipodi:docname="saffron_mata_white.svg"
   inkscape:version="0.92.4 (5da689c313, 2019-01-14)"><sodipodi:namedview
     pagecolor="#ffffff"
     bordercolor="#666666"
     borderopacity="1"
     objecttolerance="10"
     gridtolerance="10"
     guidetolerance="10"
     inkscape:pageopacity="0"
     inkscape:pageshadow="2"
     inkscape:window-width="1680"
     inkscape:window-height="824"
     id="namedview3769"
     showgrid="true"
     inkscape:zoom="0.91646828"
     inkscape:cx="355.71335"
     inkscape:cy="132.26887"
     inkscape:window-x="-3"
     inkscape:window-y="0"
     inkscape:window-maximized="0"
     inkscape:current-layer="svg2"
     inkscape:pagecheckerboard="true"
     showguides="false"><inkscape:grid
       type="xygrid"
       id="grid3771" /></sodipodi:namedview><metadata
     id="metadata8"><rdf:RDF><cc:Work
         rdf:about=""><dc:format>image/svg+xml</dc:format><dc:type
           rdf:resource="http://purl.org/dc/dcmitype/StillImage" /><dc:title /></cc:Work></rdf:RDF></metadata><defs
     id="defs6"><clipPath
       id="clipPath14"
       clipPathUnits="userSpaceOnUse"><path
         id="path12"
         d="M 0,0 H 533.57 V 156.55 H 0 Z" /></clipPath><clipPath
       clipPathUnits="userSpaceOnUse"
       id="clipPath18"><path
         d="M 0,241.687 H 249.033 V 0 H 0 Z"
         id="path16" /></clipPath></defs><g
     clip-path="url(#clipPath14)"
     transform="matrix(1.3140463,0,0,-1.3140463,-16.595334,224.89119)"
     id="g10"><g
       transform="scale(0.1)"
       id="g16"><path
         d="m 4762.7,782.87 c -31.77,42.34 -82.34,70.57 -141.16,70.57 -89.41,0 -147.04,-74.113 -147.04,-156.441 0,-89.398 64.69,-155.27 150.56,-155.27 57.64,0 108.23,28.231 137.64,70.571 z m 152.91,-370.543 h -147.03 v 45.883 c -47.05,-40 -101.17,-57.652 -158.81,-57.652 -84.69,0 -164.68,37.652 -215.25,96.472 -44.71,51.758 -72.93,122.328 -72.93,199.969 0,168.199 124.68,297.602 279.95,297.602 64.7,0 122.33,-21.172 167.04,-57.641 v 45.879 h 147.03 z m -625.1,0 c -20,-7.058 -65.88,-11.769 -95.29,-11.769 -91.74,0 -158.79,30.589 -197.62,82.351 -29.4,38.82 -42.34,89.399 -42.34,170.559 V 853.44 h -158.8 v 129.4 h 158.8 v 158.8 h 152.92 v -158.8 h 188.21 V 853.441 H 4108.18 V 635.828 c 0,-35.289 5.89,-56.469 18.82,-71.758 15.29,-17.64 40,-28.218 77.63,-28.218 22.36,0 51.76,3.519 62.35,5.878 z M 3596.94,782.87 c -31.76,42.34 -82.35,70.57 -141.15,70.57 -89.4,0 -147.04,-74.113 -147.04,-156.441 0,-89.398 64.69,-155.27 150.57,-155.27 57.64,0 108.21,28.231 137.62,70.571 z m 152.92,-370.543 h -147.04 v 45.883 c -47.05,-40 -101.16,-57.652 -158.79,-57.652 -84.7,0 -164.69,37.652 -215.28,96.472 -44.69,51.758 -72.93,122.328 -72.93,199.969 0,168.199 124.69,297.602 279.97,297.602 64.69,0 122.34,-21.172 167.03,-57.641 v 45.879 h 147.04 z m -1611.93,0 V 982.84 h 147.04 v -45.879 c 44.7,39.988 98.8,57.641 154.1,57.641 77.63,0 147.03,-35.293 191.74,-89.403 45.86,48.231 117.61,89.403 202.32,89.403 78.81,0 154.08,-35.293 199.96,-91.75 36.47,-44.704 57.64,-103.524 57.64,-188.211 V 412.328 H 2937.82 V 720.52 c 0,51.761 -10.59,77.64 -28.25,97.628 -23.51,25.883 -56.45,35.293 -85.85,35.293 -65.88,0 -117.64,-45.871 -137.64,-75.281 2.36,-18.82 4.71,-39.988 4.71,-63.519 V 412.328 H 2537.88 V 720.52 c 0,51.761 -10.59,77.64 -28.25,97.628 -23.51,25.883 -56.45,35.293 -85.86,35.293 -64.7,0 -111.75,-43.519 -132.93,-70.57 V 412.328 Z"
         id="path18"
         style="fill:#ffffff;fill-opacity:1;fill-rule:nonzero;stroke:none"
         inkscape:connector-curvature="0" /></g></g><path
     inkscape:connector-curvature="0"
     id="path68"
     style="fill:#ffffff;fill-opacity:1;fill-rule:nonzero;stroke:none;stroke-width:0.08899675"
     d="m 524.42807,242.0211 -3.6e-4,0.006 v 0.016 c 0,-0.003 0,-0.006 -0.002,-0.007 0,0.0159 0.002,0.0594 0.003,0.16437 l 3.6e-4,0.007 c -3.6e-4,-0.0518 -0.002,-0.10323 -0.002,-0.15503 0,-0.0108 3.6e-4,-0.0212 3.6e-4,-0.032" /><path
     inkscape:connector-curvature="0"
     id="path76"
     style="fill:#ffffff;fill-opacity:1;fill-rule:nonzero;stroke:none;stroke-width:0.08899675"
     d="m 569.99965,166.01156 h 3.6e-4 v 0 z" /><path
     inkscape:connector-curvature="0"
     id="path78"
     style="fill:none;stroke:#ffffff;stroke-width:3.48057389;stroke-linecap:butt;stroke-linejoin:miter;stroke-miterlimit:10;stroke-dasharray:none;stroke-opacity:1"
     d="m 569.99965,166.01156 h 3.6e-4 v 0 z" /><path
     inkscape:connector-curvature="0"
     id="path80"
     style="fill:#ffffff;fill-opacity:1;fill-rule:nonzero;stroke:none;stroke-width:0.08899675"
     d="M 570.00001,166.01156 Z" /><path
     inkscape:connector-curvature="0"
     id="path82"
     style="fill:none;stroke:#ffffff;stroke-width:3.48057389;stroke-linecap:butt;stroke-linejoin:miter;stroke-miterlimit:10;stroke-dasharray:none;stroke-opacity:1"
     d="M 570.00001,166.01156 Z" /><g
     id="g3831"
     transform="matrix(0.07739369,0,0,-0.07739369,66.66621,241.17392)"><path
       d="m 1486,2051.63 c 0,309.8 -251.15,560.95 -560.945,560.95 -309.805,0 -560.953,-251.15 -560.953,-560.95 0,-309.81 251.148,-560.95 560.953,-560.95 309.795,0 560.945,251.14 560.945,560.95"
       style="fill:#ffffff;fill-opacity:1;fill-rule:nonzero;stroke:none"
       id="path74"
       inkscape:connector-curvature="0" /><path
       d="m 1275.83,877.91 c -115.2,0 -227.89,37.539 -319.889,106.16 4.512,4.032 8.938,8.11 13.215,12.168 l 771.764,681.482 c 45.91,-80.49 70.07,-171.5 70.07,-264.64 0,-295.09 -240.07,-535.17 -535.16,-535.17 z M 39.1094,1413.08 c 0,93.14 24.164,184.15 70.0706,264.64 L 880.684,996.48 c 4.449,-4.218 8.949,-8.371 13.48,-12.41 -92,-68.621 -204.687,-106.16 -319.887,-106.16 -295.093,0 -535.1676,240.08 -535.1676,535.17 z m 1723.0506,305.27 -12.25,19.48 -807.168,-712.75 c -5.816,-5.53 -11.742,-10.84 -17.687,-16.03 -5.95,5.18 -11.871,10.5 -17.696,16.03 L 100.195,1737.83 87.9453,1718.35 C 30.4102,1626.89 0,1521.33 0,1413.08 0,1096.42 257.621,838.801 574.277,838.801 c 126.797,0 250.684,42.488 350.778,119.769 100.085,-77.281 223.975,-119.769 350.775,-119.769 316.65,0 574.27,257.619 574.27,574.279 0,108.25 -30.41,213.81 -87.94,305.27"
       style="fill:#ffffff;fill-opacity:1;fill-rule:nonzero;stroke:none"
       id="path84"
       inkscape:connector-curvature="0" /></g><path
     inkscape:connector-curvature="0"
     id="path86"
     style="fill:#ffffff;fill-opacity:1;fill-rule:nonzero;stroke:none;stroke-width:0.08899675"
     d="m 570.00001,166.01156 c 0.95493,-0.78148 1.87899,-1.59919 2.77278,-2.44821 l -2.77278,2.44821 v 0" /></svg>