<?xml version="1.0" encoding="UTF-8"?>
<svg width="350px" height="108px" viewBox="0 0 350 108" version="1.1" xmlns="http://www.w3.org/2000/svg" xmlns:xlink="http://www.w3.org/1999/xlink">
    <!-- Generator: Sketch 48.2 (47327) - http://www.bohemiancoding.com/sketch -->
    <title>Slice 1</title>
    <desc>Created with Sketch.</desc>
    <defs>
        <polygon id="path-1" points="50.6699561 51.0397266 1.04942394 51.0397266 1.04942394 1.43328832 50.6699561 1.43328832"></polygon>
        <polygon id="path-3" points="23.3618408 1.28836643 0 1.28836643 0 70.7271411 46.7236816 70.7271411 46.7236816 1.28836643"></polygon>
    </defs>
    <g id="Page-1" stroke="none" stroke-width="1" fill="none" fill-rule="evenodd">
        <g id="LOGO">
            <polygon id="Fill-1" fill="#FFFFFF" points="113.75 39.3810923 113.75 85.3125 124.6875 85.3125 124.6875 39.375"></polygon>
            <rect id="Rectangle-3" x="0" y="0" width="350" height="107.1875"></rect>
            <g id="Group-16" transform="translate(26.250000, 15.312500)">
                <path d="M164.616261,12.6771854 C163.587024,12.3956936 162.092872,12.2070013 160.971875,12.2070013 C157.9851,12.2070013 155.648289,13.0561167 154.152608,14.8517871 C153.1249,16.1726334 152.470348,17.8755042 152.470348,22.1272681 L152.470348,23.5455539 L166.485098,23.5455539 L166.485098,33.9375515 L152.470348,33.9375515 L152.470348,70.3195966 L140.327495,70.3195966 L140.327495,33.9375515 L123.616543,33.9375515 L123.616543,70.3195966 L111.47216,70.3195966 L111.47216,33.9375515 L104.743123,33.9375515 L104.743123,23.5455539 L111.47216,23.5455539 L111.47216,21.6555373 C111.47216,14.2841635 113.154419,9.84370727 116.330831,6.72719063 C119.505713,3.60912733 124.271095,1.34172615 130.43734,1.34172615 C132.86591,1.34172615 135.109432,1.52887181 137.631292,2.19238826 L135.760926,12.6771854 C134.736277,12.3956936 133.240595,12.2070013 132.11807,12.2070013 C129.128236,12.2070013 126.794484,13.0561167 125.298802,14.8517871 C124.271095,16.1726334 123.616543,17.8755042 123.616543,22.1272681 L123.616543,23.5455539 L140.327495,23.5455539 L140.327495,21.6555373 C140.327495,14.2841635 142.008225,9.84370727 145.186166,6.72719063 C148.359518,3.60912733 153.1249,1.34172615 159.292675,1.34172615 C161.719716,1.34172615 163.963238,1.52887181 166.485098,2.19238826 L164.616261,12.6771854 Z" id="Fill-2" fill="#FFFFFF"></path>
                <g id="Group-6" transform="translate(195.753810, 20.106559)">
                    <mask id="mask-2" fill="white">
                        <use xlink:href="#path-1"></use>
                    </mask>
                    <g id="Clip-5"></g>
                    <path d="M25.85969,13.7276758 C18.8829019,13.7276758 13.2075707,19.3389524 13.2075707,26.2355021 C13.2075707,33.1335985 18.8829019,38.7448751 25.85969,38.7448751 C32.8364781,38.7448751 38.5118093,33.1335985 38.5118093,26.2355021 C38.5118093,19.3389524 32.8364781,13.7276758 25.85969,13.7276758 M25.85969,51.0408092 C12.1798632,51.0408092 1.04942394,39.9126022 1.04942394,26.2355021 C1.04942394,12.5599487 12.1798632,1.43328832 25.85969,1.43328832 C39.5395168,1.43328832 50.6699561,12.5599487 50.6699561,26.2355021 C50.6699561,39.9126022 39.5395168,51.0408092 25.85969,51.0408092" id="Fill-4" fill="#FFFFFF" mask="url(#mask-2)"></path>
                </g>
                <path d="M99.0277232,46.3426797 C99.0277232,46.3426797 99.003254,46.9458765 98.9573742,48.0780304 C98.9374929,48.3610689 98.9405516,48.6781339 98.8931424,49.0230387 C98.844204,49.3694902 98.7906776,49.7468748 98.7325631,50.1551927 C98.6668021,50.5619638 98.619393,51.0027614 98.5169281,51.4636656 C98.4022286,51.9230232 98.2814118,52.4102206 98.1529483,52.9252578 C97.5809802,54.9606602 96.6771481,57.4198471 95.0392393,59.8743939 C93.4242704,62.3258475 91.1623963,64.831434 88.1618574,66.8343566 C86.6508827,67.8056581 85.0053272,68.7321065 83.1777819,69.3909829 C82.7220426,69.558022 82.2663032,69.7374344 81.7967999,69.8874603 C81.3211794,70.0142863 80.8409708,70.1426589 80.3577036,70.2710316 C80.1145406,70.3344445 79.872907,70.3963109 79.6266854,70.4581772 C79.3697586,70.5138569 79.0776572,70.5556167 78.8008491,70.6035631 C78.2411155,70.6932693 77.6737353,70.7752422 77.1032965,70.8510284 C76.7775499,70.8974282 76.6337932,70.8943349 76.4258048,70.9098015 C76.2285217,70.9221747 76.0312385,70.9330013 75.8324261,70.9453746 C75.6351429,70.9562012 75.4363305,70.9685745 75.2359887,70.9809478 L74.9362406,70.997961 C75.1870502,70.9917744 74.553909,71.0087876 74.5997888,71.0072409 L74.5508503,71.0041476 L74.4529734,71.0010543 L74.2556903,70.9948677 C73.2035136,70.9453746 72.1360436,70.9422813 71.0670442,70.7504957 C68.9152817,70.4968437 66.7711657,69.8379672 64.6866935,68.9780251 C64.1743691,68.7367464 63.6620447,68.4939211 63.1466616,68.2495491 C62.8866761,68.1335497 62.6419838,67.9850705 62.3942329,67.8396846 L61.6555681,67.3988869 L60.915374,66.9519027 C60.6691524,66.7987835 60.4428121,66.6178245 60.2072958,66.4507854 C59.7408512,66.1058805 59.2652306,65.768709 58.8094912,65.4036976 C57.0140618,63.903439 55.4113274,62.1309685 54.0410508,60.1574324 C52.7074779,58.1545098 51.6537719,55.939695 50.9044018,53.6042408 C50.7438225,53.0118707 50.5878312,52.4195005 50.4379572,51.8224904 L50.3263164,51.3755061 L50.2391448,50.8682022 L50.0816241,49.841221 L49.9424554,48.8126932 L49.9118688,48.5590412 L49.9026929,48.3858155 L49.884341,48.0409106 L49.8109333,46.6581981 C49.7971694,46.0086015 49.8078746,46.4447592 49.8063453,46.2854534 L49.8078746,46.228227 L49.8124626,46.1137743 L49.8231679,45.8833222 L49.8445785,45.4239647 L49.8935169,44.5037029 C49.9103395,43.8896795 50.0097458,43.2818428 50.104564,42.6740061 L50.2483207,41.7645709 L50.3263164,41.3098534 L50.4379572,40.8628691 C50.5878312,40.2674056 50.7438225,39.6734888 50.9044018,39.0826653 C51.6537719,36.7472111 52.7074779,34.5323963 54.0425801,32.5294737 C55.4113274,30.5559376 57.0125324,28.7819205 58.8110206,27.2832085 C59.2667599,26.9197438 59.7423805,26.5810256 60.2072958,26.2361208 C60.4443414,26.0690817 60.6706818,25.8881227 60.9169033,25.7365501 L61.6555681,25.2880192 L62.3957622,24.8487682 C62.6419838,24.7018357 62.8866761,24.5549031 63.1481909,24.4373571 C63.6620447,24.1945317 64.1758984,23.9517064 64.6866935,23.708881 C64.9405617,23.5836017 65.2051352,23.4846155 65.4697087,23.3902694 C65.7342823,23.2943765 65.9973264,23.2000304 66.2618999,23.1041376 C66.7895176,22.9185386 67.311018,22.717473 67.8523996,22.5968336 C68.3891933,22.463821 68.9244576,22.3308084 69.4566633,22.1993424 L69.6554758,22.151396 L69.8818161,22.1142762 L70.3344968,22.0446766 C70.6357741,22.0013701 70.9370515,21.9580637 71.2367995,21.9163039 C71.5365475,21.8776375 71.8362955,21.838971 72.1360436,21.8018512 L72.3593253,21.775558 C72.4373209,21.7662781 72.4679074,21.7693714 72.5260219,21.7647314 L72.8318872,21.7523581 C73.2371587,21.7337982 73.6424303,21.716785 74.0446432,21.6997718 L74.1945172,21.6935851 L74.2694542,21.6904918 L74.3061581,21.6889451 C74.254161,21.6904918 74.8980075,21.6750252 74.6487272,21.6827585 L75.0417642,21.7013184 C75.303279,21.7152383 75.5632646,21.7291583 75.8232501,21.7430782 C76.3416918,21.7817446 76.8570749,21.7863846 77.3663407,21.8606242 C81.4557601,22.3632882 85.1720238,23.8558135 88.1618574,25.8540962 C91.160867,27.8554721 93.4227411,30.3610587 95.03771,32.8125122 C96.6756188,35.2670591 97.5794509,37.7262459 98.151419,39.7601017 C98.2798825,40.2751389 98.4006993,40.763883 98.5153988,41.2216938 C98.5750425,41.4366794 98.605629,41.7197178 98.6453915,41.9563566 C98.6820954,42.2007286 98.7172699,42.438914 98.7509151,42.6678194 C98.8151468,43.1240836 98.8686732,43.547868 98.914553,43.9360793 C98.9436102,44.1541581 98.9420809,44.2562376 98.9481982,44.3799703 C98.9543155,44.5006096 98.9589035,44.6150623 98.9634915,44.7233284 C99.0001953,45.5863638 99.0200765,46.047268 99.0200765,46.047268 L99.0277232,46.3426797 Z M87.6678849,46.6380915 C87.6678849,46.6380915 87.6418864,46.1771873 87.5914186,45.3141519 C87.5853013,45.2058858 87.5776546,45.0914331 87.570008,44.9707938 C87.5638907,44.8547944 87.5593027,44.7016752 87.5378921,44.6599154 C87.5027176,44.5207162 87.4690724,44.372237 87.4384859,44.2098378 C87.424722,44.1278649 87.410958,44.0443454 87.3956648,43.9561859 C87.3757835,43.8618397 87.3864888,43.7937867 87.340609,43.6638674 C87.2717893,43.4272287 87.2014403,43.17667 87.1310913,42.9090981 C86.8053447,41.8635571 86.3389001,40.5891106 85.4457733,39.3270373 C84.5740571,38.0634174 83.3643597,36.7595844 81.7631548,35.7418832 C80.1665377,34.728822 78.2181756,33.9972525 76.0694717,33.7637071 C75.8018395,33.7219474 75.5250314,33.7436006 75.2528113,33.723494 L74.8398931,33.7049341 L74.6319046,33.6941075 C74.3581552,33.7002941 74.9775325,33.6832809 74.8995368,33.6863742 L74.8613036,33.6879209 L74.7863666,33.6925608 L74.6364926,33.7018408 C74.2342797,33.7250407 73.8305375,33.7482405 73.4237366,33.7714404 L73.1194006,33.7884537 C73.0735208,33.7930936 73.0031718,33.7930936 72.9787025,33.8008269 L72.9007069,33.8193868 C72.793654,33.84568 72.6866012,33.8704266 72.5810776,33.8905331 C72.4740248,33.9121863 72.3669719,33.9307462 72.259919,33.9477595 L72.0978104,33.9709594 L72.0152268,33.981786 L71.9127619,34.0111725 C71.6390124,34.090052 71.3637336,34.1642916 71.0853962,34.2354379 C70.8024707,34.289571 70.5394266,34.4148503 70.2687357,34.5138364 L69.8619349,34.665409 C69.7227661,34.7118087 69.5866561,34.7613018 69.4597219,34.8355414 C69.1997364,34.968554 68.9382216,35.0969267 68.6721187,35.2237526 C68.5360087,35.2778857 68.4136625,35.3629519 68.2882577,35.4433781 L67.9135727,35.6769235 L67.5327704,35.9073756 C67.4058363,35.9847086 67.2957248,36.0898813 67.1764373,36.1764942 C66.9424503,36.3620932 66.6962287,36.5322256 66.4637711,36.720918 C65.5568804,37.5097137 64.7448079,38.4160555 64.0459056,39.4151969 C63.3837072,40.437538 62.8713828,41.5495854 62.4905805,42.7095792 C62.4217608,43.0080843 62.3483531,43.303496 62.2688281,43.5989078 L62.207655,43.8200799 C62.1954204,43.8943195 62.1877738,43.9716524 62.1770685,44.0474387 L62.1113074,44.5037029 C62.0654276,44.8053013 62.0011959,45.1068997 62.0088426,45.417778 L61.9889613,45.8802289 L61.9751974,46.1122276 L61.9675507,46.2266804 L61.9644921,46.2854534 L61.9614334,46.3132932 C61.9583748,46.1818273 61.9690801,46.6489181 61.9522575,46.0271614 L62.0195478,47.4083274 L62.0363704,47.7547788 L62.0440171,47.9280046 C62.0501344,47.9635777 62.057781,47.9852309 62.0654276,48.0161641 C62.0914262,48.1275235 62.1143661,48.2404296 62.1357767,48.3533356 C62.1556579,48.4662417 62.1724805,48.5776011 62.1877738,48.6920538 C62.1954204,48.7508268 62.1969497,48.8034132 62.207655,48.8652796 L62.2688281,49.0864517 C62.3498824,49.3818635 62.4232901,49.6788219 62.4921098,49.9757803 C62.8729121,51.1357741 63.3852365,52.2478214 64.047435,53.2701626 C64.7463372,54.2677573 65.555351,55.1771924 66.4653004,55.9628949 C66.697758,56.1515872 66.9439796,56.3217196 67.1779666,56.5073186 C67.2972541,56.5939315 67.4073656,56.6991043 67.5342997,56.7764372 L67.915102,57.0068893 L68.2897871,57.2404347 C68.4136625,57.3208609 68.5360087,57.4059271 68.6721187,57.4600602 C68.9382216,57.5868862 69.2012657,57.7168055 69.4612513,57.8482714 C70.5348386,58.2921624 71.6252485,58.683467 72.7508329,58.8149329 C73.3029198,58.9433056 73.8718293,58.9216524 74.4239162,58.9757854 L74.5279104,58.9835187 L74.5799075,58.9881587 L74.6059061,58.9897053 C74.6777844,58.9897053 74.0691124,59.0036252 74.3443912,58.9974386 L74.6456686,58.9850653 C74.844481,58.9757854 75.0432935,58.9680521 75.242106,58.9603188 C75.4409184,58.9510389 75.6382016,58.9433056 75.8354847,58.9355723 C76.0205332,58.9247457 76.2728721,58.9247457 76.3340452,58.8969058 C76.5374456,58.8535994 76.7408461,58.8195729 76.9457758,58.7932797 C77.0497701,58.7778131 77.1415297,58.7778131 77.2592878,58.7530666 L77.6400901,58.6540805 C77.8939584,58.5906675 78.1462973,58.5318944 78.3986362,58.4762147 C78.6448577,58.4019751 78.8819034,58.302989 79.1220077,58.2241094 C80.0900714,57.9101378 80.949553,57.4229404 81.7616254,56.9419296 C83.3628304,55.9242284 84.5725278,54.6203954 85.444244,53.3583222 C86.3373707,52.0962489 86.802286,50.8218024 87.1295619,49.7762613 C87.199911,49.5086894 87.27026,49.2581308 87.3390797,49.0214921 C87.4002527,48.7848533 87.415546,48.5513079 87.4568378,48.3409624 C87.4935417,48.1290702 87.5271869,47.9326446 87.5593027,47.7532322 C87.5944772,47.5738198 87.5822426,47.405234 87.5960066,47.2567548 C87.6296517,46.6612914 87.6602383,46.3426797 87.6602383,46.3426797 L87.6678849,46.6380915 Z" id="Fill-7" fill="#FFFFFF"></path>
                <path d="M196.175751,33.8379467 L197.682138,22.1452094 C197.682138,22.1452094 168.756454,15.0213009 168.756454,44.729515 L168.756454,70.3127913 L180.891661,70.3127913 L180.891661,44.1386915 C180.891661,44.1386915 179.937361,29.2149848 196.175751,33.8379467" id="Fill-9" fill="#FFFFFF"></path>
                <path d="M272.014906,32.9883673 C281.900473,32.9883673 282.261395,40.6072065 282.261395,44.1382276 L282.261395,70.313874 L294.39966,70.313874 L294.39966,44.7305977 C294.39966,40.7726989 294.341546,21.6513613 272.014906,21.6513613 C249.689796,21.6513613 249.630152,40.7726989 249.630152,44.7305977 L249.630152,70.313874 L261.769947,70.313874 L261.769947,44.1382276 C261.769947,40.6072065 262.129339,32.9883673 272.014906,32.9883673" id="Fill-11" fill="#FFFFFF"></path>
                <g id="Group-15">
                    <mask id="mask-4" fill="white">
                        <use xlink:href="#path-3"></use>
                    </mask>
                    <g id="Clip-14"></g>
                    <path d="M8.39263873,51.7279896 C12.20525,55.9704735 18.0212792,59.1504031 24.1248219,59.1504031 C29.8460328,59.1504031 33.8528686,55.5822622 33.8528686,50.6654353 C33.8528686,41.9886817 21.4561469,40.9245808 12.4927634,35.6210892 C7.24717308,32.5355057 3.05070078,27.9063572 3.05070078,20.2844247 C3.05070078,8.23286256 14.0190314,1.28836643 25.0775924,1.28836643 C31.8479214,1.28836643 38.1441592,2.92782432 44.4373383,7.65286567 L37.7633568,17.2962807 C35.0916232,14.7922408 30.6106961,12.8620111 26.223058,12.8620111 C21.3597993,12.8620111 15.9230431,14.9824797 15.9230431,20.1900785 C15.9230431,31.0878335 46.7236816,27.7145715 46.7236816,50.472103 C46.7236816,62.4308656 36.1422706,70.7271411 24.1248219,70.7271411 C15.1614384,70.7271411 6.86331209,66.9656679 -0.000305865328,60.5980754 L8.39263873,51.7279896 Z" id="Fill-13" fill="#FFFFFF" mask="url(#mask-4)"></path>
                </g>
            </g>
        </g>
    </g>
</svg>