<?xml version="1.0" encoding="UTF-8"?>
<svg width="26px" height="24px" viewBox="0 0 26 24" version="1.1" xmlns="http://www.w3.org/2000/svg" xmlns:xlink="http://www.w3.org/1999/xlink">
    <!-- Generator: Sketch 47 (45396) - http://www.bohemiancoding.com/sketch -->
    <title>chat</title>
    <desc>Created with Sketch.</desc>
    <defs></defs>
    <g id="Symbols" stroke="none" stroke-width="1" fill="none" fill-rule="evenodd">
        <g id="messenger-menu-mobile" transform="translate(-264.000000, -1.000000)" fill="#FF6C24">
            <g id="chat">
                <g transform="translate(264.000000, 1.000000)">
                    <path d="M24.7742857,11.7917057 C24.7742857,12.7173243 24.0212329,13.46995 23.0956143,13.46995 L22.2114286,13.46995 C21.9752186,13.46995 21.7842857,13.66131 21.7842857,13.8970929 L21.7842857,17.4910729 L19.6485714,15.1417871 L19.6485714,7.43015 C19.6485714,6.03339286 18.5123714,4.89719286 17.11476,4.89719286 L6.83428571,4.91812286 L6.83428571,2.73115143 C6.83428571,1.80553286 7.58733857,1.05248 8.51210286,1.05248 L23.0951871,1.08238 C23.0956143,1.08238 23.0956143,1.08238 23.0960414,1.08238 C24.02166,1.08238 24.7747129,1.83543286 24.7747129,2.76105143 L24.7747129,11.7917057 L24.7742857,11.7917057 Z M18.7942857,16.4603771 C18.7942857,17.3859957 18.0412329,18.1386214 17.1139057,18.1386214 L9.82257714,18.1685214 C9.70297714,18.1689486 9.58850286,18.2197786 9.5082,18.3081971 L5.98,22.1896443 L5.98,18.5956643 C5.98,18.3598814 5.78906714,18.1685214 5.55285714,18.1685214 L2.53295714,18.1685214 C1.60733857,18.1685214 0.854285714,17.4154686 0.854285714,16.4902771 L0.854285714,7.46005 C0.854285714,6.53443143 1.60733857,5.78137857 2.53381143,5.78137857 L6.40714286,5.77326286 C6.40757,5.77326286 6.40757,5.77326286 6.40799714,5.77326286 L17.1156143,5.75105143 C18.0412329,5.75105143 18.7942857,6.50410429 18.7942857,7.42972286 L18.7942857,15.3066643 L18.7942857,16.4603771 Z M4.27142857,10.0229071 L9.82428571,10.0229071 C10.0604957,10.0229071 10.2514286,9.83154714 10.2514286,9.59576429 C10.2514286,9.35998143 10.0604957,9.16862143 9.82428571,9.16862143 L4.27142857,9.16862143 C4.03521857,9.16862143 3.84428571,9.35998143 3.84428571,9.59576429 C3.84428571,9.83154714 4.03521857,10.0229071 4.27142857,10.0229071 Z M15.3771429,11.7314786 L4.27142857,11.7314786 C4.03521857,11.7314786 3.84428571,11.9228386 3.84428571,12.1586214 C3.84428571,12.3944043 4.03521857,12.5857643 4.27142857,12.5857643 L15.3771429,12.5857643 C15.6133529,12.5857643 15.8042857,12.3944043 15.8042857,12.1586214 C15.8042857,11.9228386 15.6133529,11.7314786 15.3771429,11.7314786 Z M15.3771429,14.2943357 L4.27142857,14.2943357 C4.03521857,14.2943357 3.84428571,14.4856957 3.84428571,14.7214786 C3.84428571,14.9572614 4.03521857,15.1486214 4.27142857,15.1486214 L15.3771429,15.1486214 C15.6133529,15.1486214 15.8042857,14.9572614 15.8042857,14.7214786 C15.8042857,14.4856957 15.6133529,14.2943357 15.3771429,14.2943357 Z M23.0964686,0.228521429 L8.51295714,0.198621429 C7.1162,0.198621429 5.98,1.33482143 5.98,2.73157857 L5.98,4.92025857 L2.53295714,4.92752 C1.1362,4.92752 1.11022302e-16,6.06372 1.11022302e-16,7.46047714 L1.11022302e-16,16.4907043 C1.11022302e-16,17.8874614 1.1362,19.0232343 2.53295714,19.0232343 L5.12571429,19.0232343 L5.12571429,23.2946629 C5.12571429,23.4710729 5.23420857,23.6295429 5.39908571,23.6931871 C5.44906143,23.7124086 5.50117286,23.7218057 5.55285714,23.7218057 C5.67074857,23.7218057 5.78650429,23.6726843 5.86894286,23.58213 L10.0139371,19.02238 L17.1156143,18.9933343 C18.5123714,18.9933343 19.6485714,17.8571343 19.6485714,16.4608043 L19.6485714,16.4125371 L21.8953429,18.8839857 C21.9777814,18.97454 22.0935371,19.0236614 22.2114286,19.0236614 C22.2631129,19.0236614 22.3152243,19.0142643 22.3652,18.9950429 C22.5300771,18.9313986 22.6385714,18.7729286 22.6385714,18.5965186 L22.6385714,14.32509 L23.0956143,14.32509 C24.4923714,14.32509 25.6285714,13.18889 25.6285714,11.79256 L25.6285714,2.76147857 C25.6285714,1.36514857 24.4927986,0.228948571 23.0964686,0.228521429 Z" id="Combined-Shape"></path>
                </g>
            </g>
        </g>
    </g>
</svg>