<?xml version="1.0" encoding="UTF-8"?>
<svg width="19px" height="19px" viewBox="0 0 19 19" version="1.1" xmlns="http://www.w3.org/2000/svg" xmlns:xlink="http://www.w3.org/1999/xlink">
    <!-- Generator: Sketch 47 (45396) - http://www.bohemiancoding.com/sketch -->
    <title>filter</title>
    <desc>Created with Sketch.</desc>
    <defs></defs>
    <g id="Symbols" stroke="none" stroke-width="1" fill="none" fill-rule="evenodd">
        <g id="messenger-menu-mobile" transform="translate(-195.000000, -4.000000)" fill-rule="nonzero" fill="#FF6C24">
            <g id="filter">
                <g transform="translate(195.000000, 4.000000)">
                    <path d="M6.7047716,18.1672058 L6.7047716,8.86658848 L0.203331276,1.33695885 C-0.144611111,0.91082716 -0.105516461,0.0351069959 0.793660494,0.0351069959 L18.1360473,0.0351069959 C18.9804918,0.0351069959 19.175965,0.80918107 18.7263765,1.33695885 L12.3813148,8.66720576 L12.3813148,14.4219383 C12.3813148,14.6565062 12.3031255,14.8558889 12.1037428,15.0122675 L8.04571811,18.757535 C7.5765823,19.1054774 6.7047716,18.917823 6.7047716,18.1672058 Z M2.52946296,1.61453086 L8.08872222,8.03778189 C8.20600617,8.19416049 8.28419547,8.35444856 8.28419547,8.54992181 L8.28419547,16.3923086 L10.8058004,14.1052716 L10.8058004,8.39354321 C10.8058004,8.19806996 10.8839897,8.03778189 11.0012737,7.88140329 L16.4002449,1.61453086 L2.52946296,1.61453086 L2.52946296,1.61453086 Z" id="Shape"></path>
                </g>
            </g>
        </g>
    </g>
</svg>