<svg width="45" height="42" viewBox="0 0 45 42" fill="none" xmlns="http://www.w3.org/2000/svg">
<path d="M7.39285 17.3473H17.0036C17.4124 17.3473 17.7429 17.0161 17.7429 16.6081C17.7429 16.2 17.4124 15.8688 17.0036 15.8688H7.39285C6.98403 15.8688 6.65356 16.2 6.65356 16.6081C6.65356 17.0161 6.98403 17.3473 7.39285 17.3473Z" fill="white"/>
<path d="M26.6143 20.3044H7.39285C6.98403 20.3044 6.65356 20.6356 6.65356 21.0437C6.65356 21.4518 6.98403 21.783 7.39285 21.783H26.6143C27.0231 21.783 27.3536 21.4518 27.3536 21.0437C27.3536 20.6356 27.0231 20.3044 26.6143 20.3044Z" fill="white"/>
<path d="M26.6143 24.7402H7.39285C6.98403 24.7402 6.65356 25.0714 6.65356 25.4795C6.65356 25.8875 6.98403 26.2187 7.39285 26.2187H26.6143C27.0231 26.2187 27.3536 25.8875 27.3536 25.4795C27.3536 25.0714 27.0231 24.7402 26.6143 24.7402Z" fill="white"/>
<path fill-rule="evenodd" clip-rule="evenodd" d="M39.9747 0.3955L14.734 0.34375C12.3165 0.34375 10.35 2.31025 10.35 4.72771V8.51581L4.38396 8.52838C1.9665 8.52838 0 10.4949 0 12.9123V28.5416C0 30.959 1.9665 32.9248 4.38396 32.9248H8.87143V40.3177C8.87143 40.623 9.05921 40.8973 9.34457 41.0074C9.43107 41.0407 9.52126 41.057 9.61071 41.057C9.81476 41.057 10.0151 40.9719 10.1578 40.8152L17.3318 32.9233L29.6232 32.8731C32.0406 32.8731 34.0071 30.9066 34.0071 28.4898V28.4063L37.8958 32.6838C38.0385 32.8405 38.2388 32.9255 38.4429 32.9255C38.5323 32.9255 38.6225 32.9093 38.709 32.876C38.9944 32.7659 39.1821 32.4916 39.1821 32.1863V24.7934H39.9732C42.3906 24.7934 44.3571 22.8269 44.3571 20.4102V4.77946C44.3571 2.36274 42.3914 0.396239 39.9747 0.3955ZM32.5286 28.4891C32.5286 30.0911 31.2252 31.3937 29.6202 31.3937L17.0006 31.4455C16.7936 31.4462 16.5955 31.5342 16.4565 31.6872L10.35 38.4051V32.1848C10.35 31.7767 10.0195 31.4455 9.61071 31.4455H4.38396C2.78193 31.4455 1.47857 30.1421 1.47857 28.5408V12.9116C1.47857 11.3096 2.78193 10.0062 4.38544 10.0062L11.0893 9.99217H11.0908L29.6232 9.95372C31.2252 9.95372 32.5286 11.2571 32.5286 12.8591V26.4923V28.4891ZM39.9732 23.3134C41.5752 23.3134 42.8786 22.0107 42.8786 20.4087H42.8793V4.77873C42.8793 3.17669 41.576 1.87333 39.9739 1.87333H39.9724L14.7325 1.82158C13.1319 1.82158 11.8286 3.12494 11.8286 4.72697V8.51212L29.6217 8.47589C32.0406 8.47589 34.0071 10.4424 34.0071 12.8599V26.2069L37.7036 30.273V24.0526C37.7036 23.6446 38.034 23.3134 38.4429 23.3134H39.9732Z" fill="white"/>
</svg>
