<svg width="44" height="44" viewBox="0 0 44 44" fill="none" xmlns="http://www.w3.org/2000/svg">
<path fill-rule="evenodd" clip-rule="evenodd" d="M31.0774 32.3986C34.066 32.8976 37.4232 34.199 41.8 36.52C43.12 37.2533 44 38.6467 43.9999 40.1134V43.2667C43.9999 43.7067 43.7066 44 43.2666 44H25.6666H25.3733H18.6266H18.3333H0.733305C0.293305 44 0 43.7067 0 43.2666V40.1133C0 38.5733 0.806695 37.18 2.20009 36.5199C6.57688 34.1989 9.93412 32.8976 12.9227 32.3985L12.6134 31.9733C12.4667 31.7533 12.4667 31.5333 12.4667 31.3866L13.1539 28.6377C11.8515 26.7966 10.9337 24.6256 10.5179 22.4183C10.1795 22.6171 9.79095 22.7333 9.38669 22.7333H8.2867C6.9667 22.7333 5.8667 21.6333 5.8667 20.3866V14.8866C5.8667 13.6141 6.88901 12.6146 8.0795 12.5443C8.24098 8.30801 10.1087 0 22 0C33.891 0 35.7589 8.30766 35.9204 12.544C37.1754 12.6155 38.1333 13.6825 38.1333 14.8867V20.3867C38.1333 21.5964 37.0976 22.6677 35.8972 22.7303C35.665 25.0451 34.283 26.6173 31.5502 27.5474C31.3301 27.9217 31.0952 28.2857 30.8461 28.6378L31.5334 31.3867C31.6067 31.6067 31.5334 31.8267 31.3867 31.9734L31.0774 32.3986ZM23.76 38.8667L22.004 34.8426L20.2155 38.8667H23.76ZM19.6827 40.3333H24.3145L24.7437 42.5333H19.2426L19.6827 40.3333ZM29.9933 31.3867L29.7 30.0667C29.6007 30.1736 29.4999 30.2778 29.3982 30.3805C27.6766 32.1413 25.5294 33.3702 23.1181 33.6643L25.0951 38.1125L26.063 36.7836L29.1133 32.56C29.1521 32.5017 29.1964 32.4544 29.2442 32.4153L29.9933 31.3867ZM32.5635 25.5049C32.9771 24.4985 33.2889 23.4523 33.4861 22.3979C33.7653 22.567 34.0832 22.68 34.4259 22.7184C34.2988 23.7549 33.8382 24.7336 32.5635 25.5049ZM36.5933 20.3133V14.8133C36.5933 14.3 36.1533 13.9333 35.7133 13.9333H34.6133C34.1 13.9333 33.7333 14.3733 33.7333 14.8133V19.8V20.3133C33.7333 20.8266 34.1733 21.1933 34.6133 21.1933H35.7133C36.2266 21.1933 36.5933 20.7533 36.5933 20.3133ZM22 1.4667C26.5201 1.4667 34.1273 2.94224 34.4544 12.5519C34.1471 12.5835 33.8528 12.6769 33.5865 12.8204C32.6941 7.23611 27.8254 2.9333 22 2.9333C16.1753 2.9333 11.3071 7.23491 10.4138 12.818C10.1515 12.6764 9.85866 12.5828 9.54551 12.5517C9.87276 2.94224 17.48 1.4667 22 1.4667ZM9.3133 21.1933C9.82661 21.1933 10.1933 20.7533 10.1933 20.3133V14.8133C10.1933 14.3 9.7533 13.9333 9.3133 13.9333H8.2133C7.7 13.9333 7.3333 14.3733 7.3333 14.8133V20.3133C7.3333 20.8266 7.7733 21.1933 8.2133 21.1933H9.3133ZM11.7333 14.6667C11.7333 9.02 16.3533 4.4 22 4.4C27.6467 4.4 32.2667 9.02 32.2667 14.6667V19.8C32.2667 22.2262 31.6351 24.4474 30.611 26.3215C28.8606 26.8293 26.3426 27.1333 22.7334 27.1333C22.2934 27.1333 22.0001 27.4266 22.0001 27.8666C22.0001 28.3066 22.2934 28.5999 22.7334 28.5999C25.3755 28.5999 27.5853 28.4377 29.3948 28.0985L29.26 28.2333C28.8911 28.7252 28.5017 29.1737 28.0949 29.5781C26.3681 31.1868 24.3086 32.1613 22.324 32.2578C22.2241 32.2149 22.1121 32.1933 22 32.1933C21.8873 32.1933 21.7857 32.2154 21.6946 32.2587C20.4798 32.203 19.2365 31.8179 18.058 31.1593C16.8641 30.4734 15.741 29.4845 14.74 28.2333L14.52 28.0133L14.4772 27.999C12.8303 25.8391 11.7333 22.9976 11.7333 19.8V14.6667ZM18.9048 38.1125L20.8818 33.6643C18.4705 33.3701 16.3231 32.1411 14.6015 30.3803C14.4999 30.2778 14.3992 30.1736 14.2999 30.0667L14.0066 31.3867L14.8106 32.4907C14.8375 32.5135 14.8632 32.5366 14.8866 32.56L17.937 36.7836L18.9048 38.1125ZM1.4667 40.1133C1.4667 39.16 1.98 38.28 2.86 37.84C7.5344 35.3568 10.8993 34.1104 13.8968 33.7381L18.2729 39.7553L17.7173 42.5333H1.4667V40.1133ZM26.2827 42.5333H42.5333H42.5334V40.1133C42.5334 39.1599 42.0201 38.2799 41.1401 37.7666C36.5629 35.369 33.1376 34.1236 30.1507 33.6729L25.7271 39.7553L26.2827 42.5333Z" fill="white"/>
</svg>
