<svg width="47" height="44" viewBox="0 0 47 44" fill="none" xmlns="http://www.w3.org/2000/svg">
<path fill-rule="evenodd" clip-rule="evenodd" d="M43.3853 35.4241L35.7479 32.1161C35.5682 32.0262 35.3689 31.8066 35.1978 31.5136L40.2969 31.5097C40.386 31.5183 42.4882 31.7105 44.1738 30.9861C44.8123 30.711 45.2874 30.1679 45.4781 29.4958C45.6703 28.8175 45.5484 28.0993 45.1452 27.5241C43.6877 25.4501 40.286 20.0305 40.1797 14.5336C40.1773 14.4391 39.8694 5.09104 30.6378 5.01523C29.2789 5.02617 28.0222 5.25671 26.8789 5.68183C26.6296 5.04649 26.2623 4.3838 25.7161 3.76018C24.1117 1.9284 21.5071 1 17.974 1C14.4409 1 11.8363 1.9284 10.2311 3.75862C8.38057 5.86939 8.55249 8.42873 8.59626 8.85776V13.0144C8.09611 13.5841 7.81478 14.3133 7.81478 15.0658V18.1917C7.81478 19.1428 8.24694 20.0298 8.98465 20.6213C9.70048 23.4558 11.1986 25.5915 11.7222 26.2769V28.8628C11.7222 29.6193 11.3095 30.3132 10.6461 30.6758L3.67451 34.4785C1.40744 35.7164 0 38.0874 0 40.6694V43.9813H34.385H35.948H46.8887V41.0922C46.8887 38.6758 45.5461 36.5049 43.3853 35.4241ZM34.385 42.4183H1.56296V40.6694C1.56296 38.6602 2.65859 36.8136 4.42238 35.8523L11.3939 32.0497C12.5607 31.4128 13.2851 30.1913 13.2851 28.8636V25.7228L13.103 25.5056C13.0843 25.4829 11.1689 23.1658 10.4382 19.9844L10.3671 19.675L10.1006 19.5031C9.64813 19.2108 9.37773 18.7208 9.37773 18.1925V15.0666C9.37773 14.6282 9.56373 14.2195 9.90132 13.9139L10.1592 13.6818V8.81478L10.1522 8.71241L10.1521 8.7115C10.1457 8.65703 9.89619 6.5113 11.4065 4.7886C12.7014 3.31161 14.9114 2.56296 17.974 2.56296C21.0257 2.56296 23.231 3.30614 24.5275 4.77297C25.1722 5.50131 25.4965 6.31483 25.6583 7.01347C25.6708 7.06818 25.6825 7.1221 25.6934 7.17602L25.701 7.2138L25.701 7.21386C25.7095 7.25663 25.718 7.29908 25.7247 7.34013C25.7348 7.40108 25.7434 7.45891 25.752 7.51674C25.7583 7.55816 25.7645 7.60036 25.7692 7.64022C25.781 7.73712 25.7903 7.8309 25.7966 7.91764C25.7974 7.92466 25.7974 7.9309 25.7974 7.93791V7.93796C25.8028 8.02236 25.8067 8.10207 25.8091 8.17475C25.8091 8.18882 25.8091 8.20054 25.8099 8.2146C25.8114 8.27947 25.8114 8.3412 25.8107 8.39513V8.41857C25.8079 8.5819 25.7977 8.68651 25.7955 8.7093L25.795 8.71397L25.7888 13.6818L26.0467 13.9147C26.3843 14.2195 26.5702 14.6282 26.5702 15.0666V18.1925C26.5702 18.8747 26.1232 19.4718 25.459 19.6765L25.0698 19.7961L24.9448 20.1829C24.422 21.8092 23.6772 23.3112 22.7301 24.6475C22.498 24.9765 22.2721 25.268 22.076 25.4907L21.8814 25.7127V28.9363C21.8814 29.134 21.9009 29.3278 21.9314 29.5185C21.9351 29.5425 21.9404 29.566 21.9458 29.5896C21.9495 29.6059 21.9532 29.6222 21.9564 29.6388C21.9869 29.7959 22.0275 29.9498 22.0775 30.0999C22.0893 30.1351 22.1018 30.1687 22.115 30.2038C22.176 30.3672 22.2471 30.525 22.3299 30.6766C22.3346 30.6852 22.3391 30.694 22.3436 30.7028C22.3481 30.7116 22.3526 30.7204 22.3573 30.729C22.4706 30.929 22.6011 31.1189 22.7512 31.294L22.9293 31.5136H22.9598C23.2279 31.7777 23.5358 32.0075 23.8859 32.1825L31.3513 35.9149C33.223 36.8495 34.385 38.7298 34.385 40.8218V42.4183ZM35.948 42.4183H45.3257V41.0922C45.3257 39.2783 44.3215 37.6482 42.7046 36.8315L35.0876 33.5321C34.3772 33.1781 33.9451 32.5193 33.7005 32.0262C33.4785 31.5792 33.5035 31.0588 33.7677 30.6329C34.0326 30.2054 34.4905 29.9498 34.993 29.9498H40.3719C40.3771 29.9501 40.3875 29.9508 40.403 29.9518C40.662 29.9695 42.3181 30.0822 43.5572 29.549C43.8362 29.4294 43.9394 29.1965 43.9753 29.0683C44.0386 28.8456 43.9988 28.6096 43.8667 28.4221C42.3264 26.23 38.7324 20.4908 38.6175 14.5649C38.6097 14.2445 38.3291 6.64071 30.6386 6.57741C29.4203 6.58757 28.2926 6.79153 27.2861 7.18696C27.4158 8.02314 27.372 8.66317 27.3517 8.85854V13.0152C27.8519 13.5849 28.1332 14.314 28.1332 15.0666V18.1925C28.1332 19.4233 27.4174 20.5135 26.3147 21.0191C25.7505 22.661 24.9745 24.1833 24.0062 25.5509C23.8116 25.826 23.6233 26.0753 23.4443 26.2941V28.9363C23.4443 29.1223 23.4725 29.3036 23.5201 29.4771C23.5395 29.5479 23.5702 29.6153 23.6008 29.6824C23.6111 29.7049 23.6213 29.7273 23.6311 29.7498C23.6398 29.7699 23.6479 29.7902 23.6561 29.8105C23.6752 29.8581 23.6942 29.9055 23.7194 29.9498H25.452C26.0342 29.9498 26.5343 30.3054 26.7258 30.8564C26.8414 31.1893 26.8242 31.5347 26.6922 31.8363L32.0515 34.5168C34.4546 35.7187 35.948 38.1343 35.948 40.8218V42.4183Z" fill="white"/>
</svg>
