<svg width="35" height="50" viewBox="0 0 35 50" fill="none" xmlns="http://www.w3.org/2000/svg">
<path d="M25.4343 37.0196H17.7167C17.3402 37.0196 17.0892 37.2706 17.0892 37.647C17.0892 38.0235 17.3402 38.2745 17.7167 38.2745H25.4343C25.8108 38.2745 26.0618 38.0235 26.0618 37.647C26.0618 37.2706 25.7481 37.0196 25.4343 37.0196Z" fill="white"/>
<path d="M25.4343 29.6784H17.7167C17.3402 29.6784 17.0892 29.9294 17.0892 30.3059C17.0892 30.6823 17.3402 30.9333 17.7167 30.9333H25.4343C25.8108 30.9333 26.0618 30.6823 26.0618 30.3059C26.0618 29.9921 25.7481 29.6784 25.4343 29.6784Z" fill="white"/>
<path d="M25.4343 22.4H17.7167C17.3402 22.4 17.0892 22.651 17.0892 23.0275C17.0892 23.4039 17.3402 23.6549 17.7167 23.6549H25.4343C25.8108 23.6549 26.0618 23.4039 26.0618 23.0275C26.0618 22.651 25.7481 22.4 25.4343 22.4Z" fill="white"/>
<path d="M25.4343 15.0588H17.7167C17.3402 15.0588 17.0892 15.3726 17.0892 15.6863C17.0892 16.0628 17.3402 16.3137 17.7167 16.3137H25.4343C25.8108 16.3137 26.0618 16.0628 26.0618 15.6863C26.0618 15.3098 25.8108 15.0588 25.4343 15.0588Z" fill="white"/>
<path d="M17.4657 4.32943C17.9162 4.32943 18.2814 3.96424 18.2814 3.51375C18.2814 3.06325 17.9162 2.69806 17.4657 2.69806C17.0152 2.69806 16.65 3.06325 16.65 3.51375C16.65 3.96424 17.0152 4.32943 17.4657 4.32943Z" fill="white"/>
<path fill-rule="evenodd" clip-rule="evenodd" d="M25.3089 5.83529H34.2814C34.6579 5.83529 34.9089 6.08627 34.9089 6.46275V49.3176C34.9089 49.6941 34.6579 49.9451 34.2814 49.9451H0.712778C0.336308 49.9451 0.0853271 49.6941 0.0853271 49.3176V6.46275C0.0853271 6.08627 0.336308 5.83529 0.712778 5.83529H9.62258V4.58039C9.62258 4.20392 9.87356 3.95294 10.25 3.95294H13.8265V3.63922C13.8265 1.63137 15.4579 0 17.4657 0C19.4736 0 21.1049 1.63137 21.1049 3.63922V3.95294H24.6814C24.9951 3.95294 25.3089 4.20392 25.3089 4.58039V5.83529ZM14.5167 5.20784H10.9402V8.28235H24.1167V5.20784H20.5402C20.1638 5.20784 19.9128 4.95686 19.9128 4.58039V3.63922C19.9128 2.32157 18.8461 1.2549 17.5285 1.2549C16.2108 1.2549 15.1442 2.32157 15.1442 3.63922V4.58039C15.1442 4.95686 14.8932 5.20784 14.5167 5.20784ZM5.54415 7.0902H9.68533V8.9098C9.68533 9.28627 9.93631 9.53726 10.3128 9.53726H24.6814C25.0579 9.53726 25.3089 9.28627 25.3089 8.9098V7.0902H29.45V43.2941H5.54415V7.0902ZM1.34023 48.6902H33.654V7.0902H30.7049V43.9216C30.7049 44.298 30.454 44.549 30.0775 44.549H4.9167C4.54023 44.549 4.28925 44.298 4.28925 43.9216V7.0902H1.34023V48.6902Z" fill="white"/>
<path d="M13.45 21.2706C13.199 20.9569 12.8226 20.9569 12.5716 21.2078L10.3128 23.4667L9.55983 22.7765C9.30885 22.5255 8.93238 22.5255 8.6814 22.7765C8.43042 23.0274 8.43042 23.4039 8.6814 23.6549L9.87356 24.8471C9.99905 24.9725 10.1245 25.0353 10.3128 25.0353C10.501 25.0353 10.6265 24.9725 10.752 24.8471L13.45 22.149C13.701 21.898 13.701 21.5216 13.45 21.2706Z" fill="white"/>
<path d="M13.45 28.549C13.199 28.298 12.8226 28.298 12.5716 28.549L10.3128 30.8078L9.55983 30.0549C9.30885 29.8039 8.93238 29.8039 8.6814 30.0549C8.43042 30.3059 8.43042 30.6823 8.6814 30.9333L9.87356 32.1255C9.99905 32.251 10.1873 32.3137 10.3128 32.3137C10.501 32.3137 10.6265 32.251 10.752 32.1255L13.45 29.4274C13.701 29.1765 13.701 28.8 13.45 28.549Z" fill="white"/>
<path d="M13.45 35.8902C13.199 35.5765 12.8226 35.5765 12.5716 35.8275L10.3128 38.0863L9.55983 37.3961C9.30885 37.1451 8.93238 37.1451 8.6814 37.3961C8.43042 37.6471 8.43042 38.0235 8.6814 38.2745L9.87356 39.4667C9.99905 39.5922 10.1873 39.6549 10.3128 39.6549C10.501 39.6549 10.6265 39.5922 10.752 39.4667L13.45 36.7686C13.701 36.5177 13.701 36.1412 13.45 35.8902Z" fill="white"/>
<path d="M13.45 14.0549C13.199 13.8039 12.8226 13.8039 12.5716 14.0549L10.3128 16.3137L9.55983 15.5608C9.30885 15.3098 8.93238 15.3098 8.6814 15.5608C8.43042 15.8117 8.43042 16.1882 8.6814 16.4392L9.87356 17.6313C9.99905 17.7568 10.1873 17.8196 10.3128 17.8196C10.501 17.8196 10.6265 17.7568 10.752 17.6313L13.45 14.9333C13.701 14.6823 13.701 14.3059 13.45 14.0549Z" fill="white"/>
</svg>
