<svg width="44" height="44" viewBox="0 0 44 44" fill="none" xmlns="http://www.w3.org/2000/svg">
<path d="M6.37651 15.1106C6.88062 15.1106 7.31641 14.7335 7.37734 14.2205L8.20277 7.28468C8.24204 6.95459 8.11632 6.62631 7.86641 6.40691C7.6165 6.1876 7.27456 6.10527 6.95255 6.18708L0.761441 7.75725C0.221066 7.89432 -0.10584 8.44337 0.0312304 8.98358C0.168301 9.52378 0.717012 9.8506 1.25756 9.71379L4.34787 8.93004C2.17907 11.8523 0.783441 15.2495 0.269449 18.9095C-0.37577 23.5026 0.468137 28.2729 2.64571 32.3416C2.82755 32.6814 3.1762 32.8748 3.53645 32.8748C3.69715 32.8748 3.86018 32.8363 4.01177 32.7552C4.50316 32.4922 4.68836 31.8804 4.42539 31.389C0.836379 24.683 1.47644 16.46 5.80185 10.3785L5.37302 13.9819C5.30711 14.5353 5.70242 15.0374 6.25594 15.1034C6.2965 15.1083 6.33664 15.1106 6.37651 15.1106Z" fill="white"/>
<path d="M43.9687 35.0166C43.8316 34.4762 43.2825 34.1494 42.7424 34.2863L39.6634 35.0671C41.8461 32.1376 43.2498 28.7287 43.7658 25.0551C44.411 20.462 43.5671 15.6918 41.3896 11.623C41.1266 11.1316 40.5149 10.9464 40.0234 11.2094C39.532 11.4723 39.3468 12.084 39.6098 12.5755C43.2082 19.2991 42.5557 27.5476 38.1961 33.6369L38.6267 30.0179C38.6927 29.4645 38.2973 28.9623 37.7438 28.8964C37.1906 28.8309 36.6883 29.2258 36.6224 29.7794L35.797 36.7153C35.7577 37.0454 35.8835 37.3736 36.1334 37.593C36.3197 37.7565 36.5569 37.8438 36.7993 37.8438C36.882 37.8438 36.9653 37.8336 37.0474 37.8128L43.2385 36.2427C43.7788 36.1058 44.1057 35.5568 43.9687 35.0166Z" fill="white"/>
<path d="M11.054 22.4872C11.2002 22.7329 11.4438 22.905 11.7241 22.9608C11.7895 22.9737 11.8555 22.9801 11.9213 22.9801C12.137 22.9801 12.3489 22.9108 12.5246 22.7799L16.9043 19.5143C17.3512 19.1811 17.4433 18.5489 17.1102 18.1019C16.7769 17.6551 16.1447 17.5629 15.6978 17.8961L13.214 19.7481C13.8441 17.2331 15.5287 15.0833 17.9177 13.8706C18.4148 13.6182 18.6131 13.0107 18.3608 12.5139C18.1084 12.0168 17.5008 11.8184 17.0041 12.0708C14.1668 13.5112 12.1431 16.0336 11.3248 18.9961L10.1037 16.9451C9.81853 16.4661 9.19918 16.3091 8.72017 16.5942C8.24115 16.8793 8.08414 17.4987 8.36928 17.9777L11.054 22.4872Z" fill="white"/>
<path d="M35.6541 25.929L32.969 21.4194C32.8228 21.1737 32.5792 21.0016 32.2989 20.9459C32.0186 20.8901 31.7278 20.9557 31.4986 21.1266L27.1189 24.3922C26.672 24.7254 26.5799 25.3576 26.913 25.8046C27.2462 26.2515 27.8785 26.3436 28.3254 26.0104L30.8504 24.1278C30.2348 26.6769 28.5387 28.858 26.1229 30.0823C25.6258 30.3343 25.4269 30.9416 25.679 31.4387C25.8569 31.7898 26.2118 31.9919 26.58 31.9919C26.7335 31.9919 26.8892 31.9568 27.0355 31.8827C29.878 30.4422 31.9045 27.9173 32.7227 24.9509L33.9199 26.9614C34.1087 27.2785 34.4438 27.4545 34.788 27.4545C34.9636 27.4545 35.1415 27.4086 35.3033 27.3123C35.7821 27.0272 35.9392 26.4079 35.6541 25.929Z" fill="white"/>
<path d="M16.6608 35.2661C16.8496 35.5832 17.1848 35.7592 17.529 35.7592C17.7045 35.7592 17.8825 35.7133 18.0442 35.617L22.5539 32.9319C22.7996 32.7857 22.9716 32.5421 23.0274 32.2618C23.0832 31.9815 23.0175 31.6906 22.8467 31.4615L19.5811 27.0817C19.2478 26.6349 18.6156 26.5426 18.1687 26.8759C17.7218 27.2091 17.6298 27.8414 17.9629 28.2883L19.8308 30.7936C17.2922 30.1688 15.1242 28.4712 13.9076 26.0582C13.6565 25.5605 13.0497 25.3604 12.5519 25.6114C12.0542 25.8625 11.8542 26.4693 12.1051 26.9671C13.5433 29.8194 16.0703 31.8529 19.0422 32.6737L17.0115 33.8827C16.5328 34.1677 16.3756 34.7872 16.6608 35.2661Z" fill="white"/>
<path d="M31.4026 39.5864C24.5789 43.2275 16.4957 42.6034 10.3953 38.2L13.9819 38.6269C14.5353 38.6924 15.0375 38.2975 15.1034 37.7439C15.1693 37.1905 14.774 36.6884 14.2204 36.6226L7.28458 35.7971C6.95492 35.7578 6.62621 35.8836 6.40681 36.1335C6.1875 36.3834 6.10526 36.7251 6.18699 37.0473L7.75706 43.2384C7.87299 43.6955 8.28369 43.9999 8.7346 43.9999C8.81667 43.9999 8.90021 43.9898 8.98339 43.9687C9.52377 43.8316 9.85067 43.2825 9.7136 42.7423L8.92178 39.62C11.8502 41.8046 15.2585 43.2106 18.9316 43.7288C19.9425 43.8714 20.9618 43.9418 21.9806 43.9418C25.5856 43.9418 29.1819 43.0592 32.3527 41.3672C32.8445 41.1049 33.0304 40.4934 32.7681 40.0017C32.5057 39.5099 31.8943 39.3241 31.4026 39.5864Z" fill="white"/>
<path d="M12.589 4.40187C19.3242 0.786478 27.5908 1.43935 33.6826 5.80918L30.0179 5.37305C29.4643 5.30662 28.9623 5.70245 28.8964 6.25597C28.8306 6.80941 29.2258 7.31154 29.7794 7.37737L36.7152 8.2028C36.7551 8.20753 36.795 8.20985 36.8346 8.20985C37.123 8.20985 37.4002 8.08601 37.5929 7.86644C37.8122 7.61653 37.8945 7.27485 37.8128 6.95258L36.2428 0.761384C36.1057 0.221009 35.5565 -0.105725 35.0164 0.0311736C34.4761 0.168244 34.1492 0.717299 34.2862 1.2575L35.0589 4.30442C32.1354 2.13759 28.7377 0.744197 25.0772 0.232353C20.4785 -0.410975 15.7046 0.438431 11.6344 2.62348C11.1433 2.88713 10.9589 3.49892 11.2225 3.98997C11.4861 4.48093 12.0978 4.66552 12.589 4.40187Z" fill="white"/>
<path d="M30.1192 17.8528C30.2976 18.2023 30.6517 18.4036 31.019 18.4036C31.1733 18.4036 31.3301 18.3681 31.4769 18.2931C31.9734 18.0398 32.1705 17.4319 31.9172 16.9354C30.4744 14.1078 27.9542 12.0911 24.9973 11.2754L27.0281 10.0663C27.5071 9.78116 27.6642 9.16172 27.379 8.68279C27.0939 8.20386 26.4745 8.04677 25.9955 8.33191L21.4858 11.0169C21.2402 11.1632 21.0681 11.4068 21.0123 11.6871C20.9566 11.9675 21.0222 12.2583 21.1931 12.4874L24.4587 16.8671C24.6568 17.1329 24.9606 17.2732 25.2685 17.2732C25.4783 17.2732 25.6898 17.208 25.871 17.073C26.3179 16.7398 26.4099 16.1075 26.0768 15.6606L24.2091 13.1558C26.7354 13.7763 28.8984 15.4602 30.1192 17.8528Z" fill="white"/>
</svg>
