<?xml version="1.0" encoding="UTF-8"?>
<svg width="18px" height="23px" viewBox="0 0 18 23" version="1.1" xmlns="http://www.w3.org/2000/svg" xmlns:xlink="http://www.w3.org/1999/xlink">
    <!-- Generator: Sketch 46.2 (44496) - http://www.bohemiancoding.com/sketch -->
    <title>docs</title>
    <desc>Created with Sketch.</desc>
    <defs></defs>
    <g id="Process" stroke="none" stroke-width="1" fill="none" fill-rule="evenodd">
        <g id="Messenger-Create-New-Doc" transform="translate(-916.000000, -724.000000)" fill-rule="nonzero" fill="#4342E6">
            <g id="docs" transform="translate(916.000000, 724.000000)">
                <polygon id="Shape" points="11.9902836 0.438044776 11.9902836 5.98052239 17.5327612 5.98052239"></polygon>
                <path d="M11.2427015,7.47568657 C10.83,7.47568657 10.4951194,7.14080597 10.4951194,6.72810448 L10.4951194,0 L0.776776119,0 C0.364074627,0 0.0291940299,0.334880597 0.0291940299,0.74758209 L0.0291940299,22.1778358 C0.0291940299,22.5905373 0.364074627,22.9254179 0.776776119,22.9254179 L17.2232239,22.9254179 C17.6359254,22.9254179 17.970806,22.5905373 17.970806,22.1778358 L17.970806,7.47568657 L11.2427015,7.47568657 Z M9.74758209,18.4399701 L3.76701493,18.4399701 C3.35431343,18.4399701 3.01943284,18.1050896 3.01943284,17.6923881 C3.01943284,17.2796866 3.35431343,16.944806 3.76701493,16.944806 L9.74753731,16.944806 C10.1602388,16.944806 10.4951194,17.2796866 10.4951194,17.6923881 C10.4951194,18.1050896 10.1602836,18.4399701 9.74758209,18.4399701 Z M14.2329851,15.4496866 L3.76701493,15.4496866 C3.35431343,15.4496866 3.01943284,15.114806 3.01943284,14.7021045 C3.01943284,14.289403 3.35431343,13.9545224 3.76701493,13.9545224 L14.2329851,13.9545224 C14.6456866,13.9545224 14.9805672,14.289403 14.9805672,14.7021045 C14.9805672,15.114806 14.6456866,15.4496866 14.2329851,15.4496866 Z M14.2329851,12.4594478 L3.76701493,12.4594478 C3.35431343,12.4594478 3.01943284,12.1245672 3.01943284,11.7118657 C3.01943284,11.2991642 3.35431343,10.9642836 3.76701493,10.9642836 L14.2329851,10.9642836 C14.6456866,10.9642836 14.9805672,11.2991642 14.9805672,11.7118657 C14.9805224,12.1245672 14.6456866,12.4594478 14.2329851,12.4594478 Z" id="Shape"></path>
            </g>
        </g>
    </g>
</svg>