<?xml version="1.0" encoding="utf-8"?>
<!-- Generator: Adobe Illustrator 22.1.0, SVG Export Plug-In . SVG Version: 6.00 Build 0)  -->
<svg version="1.1" xmlns="http://www.w3.org/2000/svg" xmlns:xlink="http://www.w3.org/1999/xlink" x="0px" y="0px"
	 viewBox="0 0 18 23" style="enable-background:new 0 0 18 23;" xml:space="preserve">
<style type="text/css">
	.st0{display:none;}
	.st1{fill:#4342E6;}
	.st2{fill:#FFFFFF;}
	.st3{display:inline;fill:#FFFFFF;}
	.st4{display:inline;fill:#4342E6;}
</style>
<g id="Layer_1" class="st0">
</g>
<g id="Layer_2">
	<polygon id="Shape" class="st1" points="12,0.4 12,6 17.5,6 	"/>
	<path id="Shape_1_" class="st1" d="M11.2,7.5c-0.4,0-0.7-0.3-0.7-0.7V0H0.8C0.4,0,0,0.3,0,0.7v21.4c0,0.4,0.3,0.7,0.7,0.7h16.4
		c0.4,0,0.7-0.3,0.7-0.7V7.5H11.2z"/>
	<path class="st2" d="M7.9,18l2.9-2.9l4.8-4.8c0.1-0.1,0.1-0.2,0.2-0.4c0-0.1,0-0.3-0.1-0.4c-0.2-0.2-0.5-0.2-0.7-0.1l-5.2,4.3
		l-3.5,2.8L7.9,18z"/>
	<path class="st2" d="M7.3,15.8c-0.9-0.4-2,0.4-2,1.6c-0.1,1.2-0.2,1.7-0.6,2.1c0,0,4.1,0.2,3.9-2.2"/>
	<g class="st0">
		<path class="st3" d="M12.6,13.4c-0.1,0-0.2-0.1-0.3,0L9,14.4c-0.1,0-0.3,0-0.4-0.1c-0.1-0.1-0.1-0.2-0.1-0.4l1-3.3
			c0-0.1,0-0.2,0-0.3c0-0.1-0.1-0.1-0.2-0.2c-0.3-0.1-0.6-0.1-0.9-0.1c-2.5,0-4.5,2-4.5,4.5c0,2.5,2,4.5,4.5,4.5
			c2.5,0,4.5-2,4.5-4.5c0-0.3,0-0.7-0.1-1C12.7,13.5,12.6,13.4,12.6,13.4L12.6,13.4z M12.6,13.4"/>
		<path class="st3" d="M10.9,8.8c-0.2-0.1-0.4,0-0.4,0.2l-1.3,4.3c0,0.1,0,0.2,0.1,0.3c0.1,0.1,0.1,0.1,0.2,0.1c0,0,0.1,0,0.1,0
			l4.3-1.4c0.2-0.1,0.3-0.2,0.2-0.4C13.6,10.4,12.4,9.3,10.9,8.8L10.9,8.8z M10,12.9l1-3.4c1.1,0.4,1.9,1.2,2.3,2.3L10,12.9z
			 M10,12.9"/>
	</g>
	<g transform="translate(0,-952.36218)" class="st0">
		<path class="st4" d="M3.1,955v5.1H1c-0.2,0-0.4,0.2-0.4,0.4v6.5h2.5v4.4h11.8V967h2.5v-6.9h-2.5v-2.2c0,0,0,0,0,0l-3.3-3.3H3.5
			C3.3,954.6,3.1,954.8,3.1,955z M11.5,955.3l2.9,2.9l-2.9,0V955.3z M1.4,960.9h1.7v0.8H1.4V960.9z M14.9,960.9h1.7v0.8h-1.7V960.9z
			 M1.4,962.4h15.2v2.3H1.4V962.4z M12.2,963c-0.3,0-0.6,0.3-0.6,0.6c0,0.3,0.3,0.6,0.6,0.6c0.3,0,0.6-0.3,0.6-0.6
			C12.8,963.2,12.6,963,12.2,963z M14.1,963c-0.3,0-0.6,0.3-0.6,0.6c0,0.3,0.3,0.6,0.6,0.6c0.3,0,0.6-0.3,0.6-0.6
			C14.7,963.2,14.5,963,14.1,963z M1.4,965.5h1.7v0.8H1.4V965.5z M14.9,965.5h1.7v0.8h-1.7V965.5z"/>
	</g>
</g>
</svg>
