<?xml version="1.0" encoding="UTF-8"?>
<svg width="18px" height="23px" viewBox="0 0 18 23" version="1.1" xmlns="http://www.w3.org/2000/svg" xmlns:xlink="http://www.w3.org/1999/xlink">
    <!-- Generator: Sketch 47 (45396) - http://www.bohemiancoding.com/sketch -->
    <title>spreadsheet</title>
    <desc>Created with Sketch.</desc>
    <defs></defs>
    <g id="Symbols" stroke="none" stroke-width="1" fill="none" fill-rule="evenodd">
        <g id="spreadsheet" fill-rule="nonzero" fill="#4342E6">
            <polygon id="Shape" points="11.9902836 0.438044776 11.9902836 5.98052239 17.5327612 5.98052239"></polygon>
            <path d="M11.2427015,7.47568657 L17.970806,7.47568657 L17.970806,22.1778358 C17.970806,22.5905373 17.6359254,22.9254179 17.2232239,22.9254179 L0.776776119,22.9254179 C0.364074627,22.9254179 0.0291940299,22.5905373 0.0291940299,22.1778358 L0.0291940299,0.74758209 C0.0291940299,0.334880597 0.364074627,0 0.776776119,0 L10.4951194,0 L10.4951194,6.72810448 C10.4951194,7.14080597 10.83,7.47568657 11.2427015,7.47568657 Z M4,10.4166781 L4,20.416639 C4,20.6467553 4.18656177,20.8333171 4.41667806,20.8333171 L13.5833219,20.8333171 C13.8134382,20.8333171 14,20.6467553 14,20.416639 L14,10.4166781 C14,10.1865618 13.8134382,10 13.5833219,10 L4.41667806,10 C4.18656177,10.0000391 4,10.1865618 4,10.4166781 Z M11.4999707,10.8333561 L13.1666439,10.8333561 L13.1666439,12.5000293 L11.4999707,12.5000293 L11.4999707,10.8333561 Z M11.4999707,13.3333464 L13.1666439,13.3333464 L13.1666439,15.0000195 L11.4999707,15.0000195 L11.4999707,13.3333464 Z M11.4999707,15.8333366 L13.1666439,15.8333366 L13.1666439,17.5000098 L11.4999707,17.5000098 L11.4999707,15.8333366 Z M11.4999707,18.3333268 L13.1666439,18.3333268 L13.1666439,20 L11.4999707,20 L11.4999707,18.3333268 Z M7.33330729,10.8333561 L10.6666146,10.8333561 L10.6666146,12.5000293 L7.33330729,12.5000293 L7.33330729,10.8333561 Z M7.33330729,13.3333464 L10.6666146,13.3333464 L10.6666146,15.0000195 L7.33330729,15.0000195 L7.33330729,13.3333464 Z M7.33330729,15.8333366 L10.6666146,15.8333366 L10.6666146,17.5000098 L7.33330729,17.5000098 L7.33330729,15.8333366 Z M7.33330729,18.3333268 L10.6666146,18.3333268 L10.6666146,20 L7.33330729,20 L7.33330729,18.3333268 Z M4.83331706,10.8333561 L6.49999023,10.8333561 L6.49999023,12.5000293 L4.83331706,12.5000293 L4.83331706,10.8333561 Z M4.83331706,13.3333464 L6.49999023,13.3333464 L6.49999023,15.0000195 L4.83331706,15.0000195 L4.83331706,13.3333464 Z M4.83331706,15.8333366 L6.49999023,15.8333366 L6.49999023,17.5000098 L4.83331706,17.5000098 L4.83331706,15.8333366 Z M4.83331706,18.3333268 L6.49999023,18.3333268 L6.49999023,20 L4.83331706,20 L4.83331706,18.3333268 Z" id="Shape"></path>
        </g>
    </g>
</svg>