<?xml version="1.0" encoding="UTF-8"?>
<svg xmlns="http://www.w3.org/2000/svg" xmlns:xlink="http://www.w3.org/1999/xlink" width="18pt" height="18pt" viewBox="0 0 18 18" version="1.1">
<g id="surface1">
<path style=" stroke:none;fill-rule:nonzero;fill:rgb(0%,0%,0%);fill-opacity:1;" d="M 17.699219 12.421875 C 17.5 12.21875 17.253906 12.117188 16.964844 12.117188 L 12.34375 12.117188 C 12.191406 12.523438 11.9375 12.851562 11.582031 13.113281 C 11.226562 13.371094 10.828125 13.503906 10.386719 13.503906 L 7.617188 13.503906 C 7.175781 13.503906 6.777344 13.371094 6.421875 13.113281 C 6.0625 12.851562 5.808594 12.523438 5.660156 12.117188 L 1.039062 12.117188 C 0.75 12.117188 0.503906 12.21875 0.304688 12.421875 C 0.101562 12.621094 0 12.867188 0 13.15625 L 0 16.617188 C 0 16.90625 0.101562 17.152344 0.304688 17.355469 C 0.503906 17.554688 0.75 17.65625 1.039062 17.65625 L 16.964844 17.65625 C 17.253906 17.65625 17.5 17.554688 17.699219 17.355469 C 17.902344 17.152344 18.003906 16.90625 18.003906 16.617188 L 18.003906 13.15625 C 18.003906 12.867188 17.902344 12.621094 17.699219 12.421875 Z M 13.644531 16.066406 C 13.503906 16.203125 13.34375 16.273438 13.15625 16.273438 C 12.96875 16.273438 12.804688 16.203125 12.667969 16.066406 C 12.53125 15.929688 12.464844 15.765625 12.464844 15.578125 C 12.464844 15.390625 12.53125 15.230469 12.667969 15.09375 C 12.804688 14.957031 12.96875 14.886719 13.15625 14.886719 C 13.34375 14.886719 13.503906 14.957031 13.644531 15.09375 C 13.78125 15.230469 13.847656 15.390625 13.847656 15.578125 C 13.847656 15.765625 13.78125 15.929688 13.644531 16.066406 Z M 16.414062 16.066406 C 16.277344 16.203125 16.113281 16.273438 15.925781 16.273438 C 15.738281 16.273438 15.574219 16.203125 15.4375 16.066406 C 15.300781 15.929688 15.234375 15.765625 15.234375 15.578125 C 15.234375 15.390625 15.300781 15.230469 15.4375 15.09375 C 15.574219 14.957031 15.738281 14.886719 15.925781 14.886719 C 16.113281 14.886719 16.277344 14.957031 16.414062 15.09375 C 16.550781 15.230469 16.617188 15.390625 16.617188 15.578125 C 16.617188 15.765625 16.550781 15.929688 16.414062 16.066406 Z M 16.414062 16.066406 "/>
<path style=" stroke:none;fill-rule:nonzero;fill:rgb(0%,0%,0%);fill-opacity:1;" d="M 4.15625 6.578125 L 6.925781 6.578125 L 6.925781 11.425781 C 6.925781 11.613281 6.992188 11.773438 7.128906 11.910156 C 7.265625 12.050781 7.429688 12.117188 7.617188 12.117188 L 10.386719 12.117188 C 10.574219 12.117188 10.734375 12.050781 10.875 11.910156 C 11.011719 11.773438 11.078125 11.613281 11.078125 11.425781 L 11.078125 6.578125 L 13.847656 6.578125 C 14.152344 6.578125 14.363281 6.433594 14.488281 6.144531 C 14.609375 5.863281 14.558594 5.617188 14.335938 5.398438 L 9.488281 0.550781 C 9.359375 0.414062 9.195312 0.347656 9 0.347656 C 8.808594 0.347656 8.644531 0.414062 8.515625 0.550781 L 3.667969 5.398438 C 3.445312 5.617188 3.394531 5.863281 3.515625 6.144531 C 3.640625 6.433594 3.851562 6.578125 4.15625 6.578125 Z M 4.15625 6.578125 "/>
</g>
</svg>
